<svg width="72" height="70" viewBox="0 0 72 70" fill="none" xmlns="http://www.w3.org/2000/svg">
<rect width="72" height="70" rx="20" fill="#30A7FF"/>
<g clip-path="url(#clip0_45_6146)">
<path d="M35.7873 17.5998C36.2011 17.5228 36.407 17.6921 36.7708 17.823C41.3015 19.4513 45.7726 21.9476 50.3168 23.6202C50.5978 23.7819 50.7268 24.1456 50.7325 24.4555C50.4458 32.4623 52.2723 40.2015 46.5425 46.7397C44.2906 49.3091 39.5481 52.3636 36.051 52.4233C32.6192 52.483 27.6651 49.2514 25.4651 46.7397C19.6776 40.1341 21.5599 32.1793 21.3039 24.0995L21.5272 23.7453L35.7873 17.5998ZM49.1716 24.8116L36.0433 19.2146L22.8321 24.8077C22.861 29.0151 22.7013 33.2398 22.9265 37.4376C23.7156 43.5851 28.1636 48.8241 34.1532 50.462C35.7892 50.9105 36.2954 50.8951 37.9275 50.4408C44.3214 48.6624 48.8483 42.821 49.1909 36.2019L49.1716 24.8097V24.8116Z" fill="white"/>
<path d="M57.9695 43.9238C58.3236 44.2318 59.7229 44.2664 59.923 44.9054C60.0193 45.2153 60.0251 48.1428 59.9461 48.4988C59.7748 49.2649 58.1754 49.2552 57.9021 49.7268C57.7635 49.9674 57.6384 50.564 57.5114 50.8758C57.4113 51.1222 57.0187 51.7304 57.0052 51.9036C56.9629 52.406 57.9522 53.3722 57.6327 54.0728C57.3324 54.7329 55.6348 55.9185 55.1479 56.596C54.4954 57.0233 53.4099 55.957 52.9095 55.9994C52.5226 56.0321 51.1907 56.9386 50.6345 56.9906C50.2822 57.4429 50.1706 58.7324 49.5778 58.9172C49.241 59.0231 46.4925 59.0211 46.0652 58.9538C45.201 58.8191 45.2472 57.2004 44.8892 56.9309C44.7545 56.8308 43.7056 56.5229 43.4149 56.4074C43.1974 56.3208 42.7336 56.0128 42.5777 55.9994C42.3352 55.9782 41.2997 56.623 40.8878 56.6807C40.5664 56.7269 40.3758 56.5941 40.1372 56.4132C39.8985 56.2323 37.9661 54.2806 37.9026 54.1247C37.5465 53.2567 38.7206 51.3416 39.5636 52.3675C40.0024 52.9006 39.5848 53.0642 39.5598 53.4357C39.5347 53.8071 40.6607 54.6174 40.907 54.9697C41.5595 54.8619 42.1754 54.2287 42.8587 54.3615C43.1455 54.4173 43.8133 54.9042 44.1829 55.062C44.6275 55.2526 45.6822 55.4566 45.9652 55.6856C46.3308 55.982 46.5175 56.9559 46.6946 57.4083L48.7367 57.4236C48.9022 57.3832 49.1832 55.9051 49.574 55.6433C49.8492 55.4605 50.8635 55.2333 51.2985 55.0582C51.6796 54.9042 52.4841 54.373 52.8017 54.3403C53.2751 54.2922 54.0623 54.8311 54.5262 54.987L55.9716 53.5704C56.0236 53.4549 55.4347 52.3983 55.3827 52.1288C55.2653 51.5225 55.8292 50.8681 56.0602 50.2926C56.2238 49.8885 56.5067 48.7336 56.6857 48.5123C56.9455 48.189 58.3371 47.8926 58.4083 47.7809L58.4276 45.735C58.4064 45.6561 57.1072 45.2807 56.8897 45.1383C56.4663 44.8612 56.2873 43.7121 56.0621 43.1751C55.9158 42.8268 55.375 42.0222 55.3423 41.7701C55.2614 41.1503 55.8793 40.5075 55.9697 39.8993C55.9312 39.8127 54.6898 38.5924 54.5974 38.5674C54.2375 38.4692 53.4003 39.1775 52.792 39.1371C52.5033 39.1179 51.1946 38.3999 51.0829 38.144C50.825 37.5492 51.2542 36.9468 51.899 37.0296C52.2454 37.0738 52.7305 37.4876 52.9845 37.4876C53.5023 37.4876 54.2587 36.6061 55.0593 36.864C55.2961 36.941 57.4845 39.1487 57.6057 39.42C57.8944 40.0571 57.1438 40.9252 56.9994 41.568C57.3459 41.901 57.7847 43.7622 57.9637 43.9181L57.9695 43.9238Z" fill="white"/>
<path d="M27.0762 13.0325C27.6632 13.0556 29.0221 13.964 29.4263 13.9968C29.9479 14.041 31.0603 12.9151 31.7224 13.4386C32.1189 14.0372 33.9512 15.3806 34.1302 15.9369C34.2823 16.4103 33.7299 17.8923 33.2391 18.0386C32.7002 18.2003 32.1516 17.8288 32.1805 17.2553C32.1921 17.0147 32.5481 16.5412 32.4923 16.4199C32.4519 16.3295 31.1854 15.063 31.095 15.0226C30.4868 15.1131 29.8458 15.7309 29.2242 15.6501C28.9701 15.6174 28.1714 15.0784 27.8191 14.9322C27.336 14.732 26.6297 14.6261 26.212 14.4221C25.6596 14.1507 25.3863 12.6014 25.2593 12.5667L23.2153 12.586C23.0209 13.0094 22.8034 14.0968 22.4281 14.349C22.1259 14.5511 21.1424 14.7474 20.7016 14.9322C20.3398 15.0842 19.5718 15.6077 19.2985 15.6501C18.7192 15.7367 18.0244 15.1881 17.4758 15.0053L16.0304 16.4219C15.9669 16.5624 16.5847 17.5921 16.6386 17.8404C16.7714 18.4736 16.1921 19.1011 15.9399 19.6958C15.7648 20.1115 15.5165 21.2298 15.3163 21.4781C15.0565 21.8033 13.6476 22.1247 13.5937 22.2094L13.5745 24.2535C13.5976 24.3401 14.9602 24.7212 15.2143 24.9406C15.4992 25.185 15.7494 26.3629 15.9399 26.8133C16.0862 27.1598 16.627 27.9701 16.6598 28.2183C16.7329 28.7842 16.1959 29.454 16.0285 29.9871C15.9996 30.1835 17.241 31.2189 17.4296 31.4845C17.5432 31.5365 18.5421 30.961 18.775 30.9014C19.5506 30.7012 20.8479 31.4711 20.4014 32.3353C20.0107 33.0897 19.3004 32.4546 18.9463 32.5085C18.3304 32.5989 17.6895 33.4266 16.8792 33.0936C16.7156 33.0262 14.4598 30.7705 14.3771 30.5896C14.0595 29.887 15.0469 28.9228 15.0045 28.4204C14.991 28.2665 14.6831 27.8007 14.5965 27.5832C14.481 27.2926 14.173 26.2436 14.073 26.1089C13.8035 25.7509 12.1848 25.7971 12.0501 24.9329C11.9827 24.5056 11.9827 21.7571 12.0867 21.4203C12.2926 20.7601 13.7573 20.7447 14.071 20.3252C14.2077 20.1423 14.3828 19.4032 14.5002 19.1184C14.6003 18.872 14.993 18.2638 15.0064 18.0906C15.0488 17.5902 13.9825 16.5046 14.4098 15.8522C15.0873 15.3652 16.2729 13.6657 16.9331 13.3674C17.6356 13.0498 18.5998 14.0372 19.1022 13.9948C19.2773 13.9794 19.8817 13.5887 20.13 13.4886C20.4495 13.3597 21.0327 13.2557 21.279 13.0979C21.7929 12.765 21.7429 11.2252 22.507 11.0539C22.8631 10.975 25.7905 10.9788 26.1004 11.077C26.6355 11.2444 26.8491 12.5552 27.082 13.0306L27.0762 13.0325Z" fill="white"/>
<path d="M50.6574 42.0492C51.4485 41.2562 52.5687 42.8267 52.942 43.4157C56.4662 48.9704 50.055 55.4354 44.4792 51.9748C43.8941 51.613 42.643 50.795 43.3686 50.0155C44.0326 49.3033 44.9026 50.462 45.4781 50.7834C49.8914 53.247 54.4934 47.8136 51.3965 43.9026C51.0116 43.4176 49.9222 42.7844 50.6555 42.0511L50.6574 42.0492Z" fill="white"/>
<path d="M28.7565 20.0537C28.131 20.7947 27.3938 19.8016 26.93 19.4821C22.9516 16.7356 17.9974 21.0142 20.1223 25.3274C20.4187 25.9279 21.2867 26.5977 20.7016 27.254C19.6508 28.4358 18.4151 25.464 18.2419 24.7057C17.0832 19.6033 22.2241 15.4306 26.9742 17.7056C27.6556 18.0328 29.5091 19.1607 28.7546 20.0557L28.7565 20.0537Z" fill="white"/>
<path d="M35.8855 21.9265L36.4841 22.0555C39.529 23.5413 42.9761 24.6095 45.9806 26.1262C46.3771 26.3264 46.7235 26.4053 46.6908 26.9557C46.4733 33.4766 47.9957 39.6722 42.9319 44.763C41.523 46.1796 38.0585 48.3256 36.0472 48.3757C34.6403 48.4103 31.6762 46.859 30.5253 46.0064C23.9736 41.1485 25.4344 34.1618 25.3151 26.9557C25.2805 26.4072 25.6269 26.3244 26.0253 26.1262C29.1472 24.5595 32.7117 23.4393 35.8836 21.9265H35.8855ZM45.1337 27.4061L35.9702 23.5741L26.8722 27.4061L26.8568 36.4945C27.2456 40.65 29.8362 44.3704 33.6587 46.0526C35.2966 46.7724 35.9375 46.9553 37.662 46.3317C41.829 44.8227 44.7468 40.8963 45.1491 36.4965L45.1337 27.408V27.4061Z" fill="white"/>
<path d="M35.4062 27.7122C41.3381 27.2214 45.328 33.7461 42.2023 38.8388C39.1016 43.8912 31.4798 43.2406 29.2491 37.7572C27.3917 33.1918 30.527 28.1163 35.4062 27.7122ZM35.5986 29.2519C27.5592 29.8543 29.2683 42.2436 37.1634 40.6307C44.1289 39.2084 42.6315 28.7246 35.5986 29.2519Z" fill="white"/>
<path d="M38.7686 32.3276C39.5 32.1351 40.1082 32.7029 39.7425 33.3977C39.6425 33.5883 39.1728 34.0002 38.9861 34.1811C37.7524 35.3783 36.3724 36.4484 35.129 37.6379C34.7884 37.8053 34.4843 37.7476 34.1782 37.5435C33.8722 37.3395 32.319 35.7324 32.2266 35.4514C32.0284 34.8567 32.4191 34.3389 33.06 34.4217C33.5989 34.491 34.5305 35.9018 34.7884 35.8556L38.3125 32.6375C38.4318 32.5413 38.632 32.3623 38.7686 32.3257V32.3276Z" fill="white"/>
</g>
<defs>
<clipPath id="clip0_45_6146">
<rect width="48" height="48" fill="white" transform="translate(12 11)"/>
</clipPath>
</defs>
</svg>
