<svg width="1440" height="362" viewBox="0 0 1440 362" fill="none" xmlns="http://www.w3.org/2000/svg">
<g clip-path="url(#clip0_34_302)">
<rect x="502" width="363" height="362" rx="40" fill="#30A7FF"/>
<g clip-path="url(#clip1_34_302)">
<path d="M696.467 151.042C696.507 151.203 696.729 151.369 696.981 151.314C697.556 151.178 699.305 150.145 699.996 149.793C709.429 144.999 718.615 139.646 728.012 134.771C731.446 133.321 734.894 135.828 734.995 139.464V195.065C734.496 200.891 730.957 204.582 725.053 205H641.695C635.806 204.441 632.429 200.644 632 194.813V122.363C632.408 119.19 633.064 116.451 636.492 115.529C639.088 114.834 648.789 114.935 651.768 115.207C654.082 115.418 656.381 116.516 657.243 118.792C657.349 119.074 657.944 121.23 657.944 121.361V151.037C657.944 151.102 658.337 151.51 658.544 151.394L689.857 134.63C692.151 133.703 695.197 135.073 696.018 137.4C696.109 137.656 696.467 139.072 696.467 139.218V151.037V151.042ZM652.338 171.346C651.209 171.578 650.079 172.806 649.903 173.944C649.615 175.788 649.646 182.334 649.883 184.248C650.019 185.361 650.765 186.72 651.894 187.012C653.301 187.375 661.418 187.34 663.112 187.138C664.967 186.917 665.607 185.713 665.759 184.001C665.97 181.589 665.96 177.097 665.759 174.675C665.617 173.008 664.902 171.583 663.092 171.306C661.534 171.064 653.795 171.049 652.338 171.346ZM678.02 171.346C676.482 171.658 675.721 172.973 675.575 174.438C675.343 176.754 675.338 181.674 675.575 183.986C675.706 185.255 676.215 186.655 677.581 187.012C678.947 187.37 687.12 187.34 688.799 187.138C690.478 186.937 690.957 186.101 691.365 184.671C691.904 182.772 691.965 175.36 691.304 173.562C690.846 172.308 689.908 171.452 688.547 171.286C686.792 171.074 679.608 171.029 678.025 171.351L678.02 171.346ZM703.702 171.346C702.572 171.578 701.443 172.806 701.267 173.944C700.979 175.788 701.01 182.334 701.246 184.248C701.383 185.361 702.129 186.72 703.258 187.012C704.67 187.38 712.777 187.34 714.476 187.138C715.882 186.972 716.956 185.879 717.122 184.5C717.385 182.314 717.364 176.387 717.117 174.181C716.956 172.751 715.907 171.527 714.455 171.306C712.898 171.064 705.159 171.049 703.702 171.346Z" fill="black"/>
</g>
<path d="M609.75 254.55V272H606.25V260.65L601.575 272H598.925L594.225 260.65V272H590.725V254.55H594.7L600.25 267.525L605.8 254.55H609.75ZM612.31 265.025C612.31 263.625 612.585 262.383 613.135 261.3C613.702 260.217 614.46 259.383 615.41 258.8C616.377 258.217 617.452 257.925 618.635 257.925C619.669 257.925 620.569 258.133 621.335 258.55C622.119 258.967 622.744 259.492 623.21 260.125V258.15H626.735V272H623.21V269.975C622.76 270.625 622.135 271.167 621.335 271.6C620.552 272.017 619.644 272.225 618.61 272.225C617.444 272.225 616.377 271.925 615.41 271.325C614.46 270.725 613.702 269.883 613.135 268.8C612.585 267.7 612.31 266.442 612.31 265.025ZM623.21 265.075C623.21 264.225 623.044 263.5 622.71 262.9C622.377 262.283 621.927 261.817 621.36 261.5C620.794 261.167 620.185 261 619.535 261C618.885 261 618.285 261.158 617.735 261.475C617.185 261.792 616.735 262.258 616.385 262.875C616.052 263.475 615.885 264.192 615.885 265.025C615.885 265.858 616.052 266.592 616.385 267.225C616.735 267.842 617.185 268.317 617.735 268.65C618.302 268.983 618.902 269.15 619.535 269.15C620.185 269.15 620.794 268.992 621.36 268.675C621.927 268.342 622.377 267.875 622.71 267.275C623.044 266.658 623.21 265.925 623.21 265.075ZM637.829 257.95C639.479 257.95 640.812 258.475 641.829 259.525C642.845 260.558 643.354 262.008 643.354 263.875V272H639.854V264.35C639.854 263.25 639.579 262.408 639.029 261.825C638.479 261.225 637.729 260.925 636.779 260.925C635.812 260.925 635.045 261.225 634.479 261.825C633.929 262.408 633.654 263.25 633.654 264.35V272H630.154V258.15H633.654V259.875C634.12 259.275 634.712 258.808 635.429 258.475C636.162 258.125 636.962 257.95 637.829 257.95ZM659.757 258.15V272H656.232V270.25C655.782 270.85 655.19 271.325 654.457 271.675C653.74 272.008 652.957 272.175 652.107 272.175C651.024 272.175 650.065 271.95 649.232 271.5C648.399 271.033 647.74 270.358 647.257 269.475C646.79 268.575 646.557 267.508 646.557 266.275V258.15H650.057V265.775C650.057 266.875 650.332 267.725 650.882 268.325C651.432 268.908 652.182 269.2 653.132 269.2C654.099 269.2 654.857 268.908 655.407 268.325C655.957 267.725 656.232 266.875 656.232 265.775V258.15H659.757ZM669.56 261.025H667.135V272H663.585V261.025H662.01V258.15H663.585V257.45C663.585 255.75 664.069 254.5 665.035 253.7C666.002 252.9 667.46 252.525 669.41 252.575V255.525C668.56 255.508 667.969 255.65 667.635 255.95C667.302 256.25 667.135 256.792 667.135 257.575V258.15H669.56V261.025ZM670.929 265.025C670.929 263.625 671.204 262.383 671.754 261.3C672.32 260.217 673.079 259.383 674.029 258.8C674.995 258.217 676.07 257.925 677.254 257.925C678.287 257.925 679.187 258.133 679.954 258.55C680.737 258.967 681.362 259.492 681.829 260.125V258.15H685.354V272H681.829V269.975C681.379 270.625 680.754 271.167 679.954 271.6C679.17 272.017 678.262 272.225 677.229 272.225C676.062 272.225 674.995 271.925 674.029 271.325C673.079 270.725 672.32 269.883 671.754 268.8C671.204 267.7 670.929 266.442 670.929 265.025ZM681.829 265.075C681.829 264.225 681.662 263.5 681.329 262.9C680.995 262.283 680.545 261.817 679.979 261.5C679.412 261.167 678.804 261 678.154 261C677.504 261 676.904 261.158 676.354 261.475C675.804 261.792 675.354 262.258 675.004 262.875C674.67 263.475 674.504 264.192 674.504 265.025C674.504 265.858 674.67 266.592 675.004 267.225C675.354 267.842 675.804 268.317 676.354 268.65C676.92 268.983 677.52 269.15 678.154 269.15C678.804 269.15 679.412 268.992 679.979 268.675C680.545 268.342 680.995 267.875 681.329 267.275C681.662 266.658 681.829 265.925 681.829 265.075ZM687.872 265.075C687.872 263.642 688.164 262.392 688.747 261.325C689.33 260.242 690.139 259.408 691.172 258.825C692.205 258.225 693.389 257.925 694.722 257.925C696.439 257.925 697.855 258.358 698.972 259.225C700.105 260.075 700.864 261.275 701.247 262.825H697.472C697.272 262.225 696.93 261.758 696.447 261.425C695.98 261.075 695.397 260.9 694.697 260.9C693.697 260.9 692.905 261.267 692.322 262C691.739 262.717 691.447 263.742 691.447 265.075C691.447 266.392 691.739 267.417 692.322 268.15C692.905 268.867 693.697 269.225 694.697 269.225C696.114 269.225 697.039 268.592 697.472 267.325H701.247C700.864 268.825 700.105 270.017 698.972 270.9C697.839 271.783 696.422 272.225 694.722 272.225C693.389 272.225 692.205 271.933 691.172 271.35C690.139 270.75 689.33 269.917 688.747 268.85C688.164 267.767 687.872 266.508 687.872 265.075ZM707.886 261.025V267.725C707.886 268.192 707.994 268.533 708.211 268.75C708.444 268.95 708.828 269.05 709.361 269.05H710.986V272H708.786C705.836 272 704.361 270.567 704.361 267.7V261.025H702.711V258.15H704.361V254.725H707.886V258.15H710.986V261.025H707.886ZM726.578 258.15V272H723.053V270.25C722.603 270.85 722.012 271.325 721.278 271.675C720.562 272.008 719.778 272.175 718.928 272.175C717.845 272.175 716.887 271.95 716.053 271.5C715.22 271.033 714.562 270.358 714.078 269.475C713.612 268.575 713.378 267.508 713.378 266.275V258.15H716.878V265.775C716.878 266.875 717.153 267.725 717.703 268.325C718.253 268.908 719.003 269.2 719.953 269.2C720.92 269.2 721.678 268.908 722.228 268.325C722.778 267.725 723.053 266.875 723.053 265.775V258.15H726.578ZM733.532 260.3C733.982 259.567 734.565 258.992 735.282 258.575C736.015 258.158 736.848 257.95 737.782 257.95V261.625H736.857C735.757 261.625 734.923 261.883 734.357 262.4C733.807 262.917 733.532 263.817 733.532 265.1V272H730.032V258.15H733.532V260.3ZM741.914 256.5C741.297 256.5 740.781 256.308 740.364 255.925C739.964 255.525 739.764 255.033 739.764 254.45C739.764 253.867 739.964 253.383 740.364 253C740.781 252.6 741.297 252.4 741.914 252.4C742.531 252.4 743.039 252.6 743.439 253C743.856 253.383 744.064 253.867 744.064 254.45C744.064 255.033 743.856 255.525 743.439 255.925C743.039 256.308 742.531 256.5 741.914 256.5ZM743.639 258.15V272H740.139V258.15H743.639ZM754.772 257.95C756.422 257.95 757.755 258.475 758.772 259.525C759.789 260.558 760.297 262.008 760.297 263.875V272H756.797V264.35C756.797 263.25 756.522 262.408 755.972 261.825C755.422 261.225 754.672 260.925 753.722 260.925C752.755 260.925 751.989 261.225 751.422 261.825C750.872 262.408 750.597 263.25 750.597 264.35V272H747.097V258.15H750.597V259.875C751.064 259.275 751.655 258.808 752.372 258.475C753.105 258.125 753.905 257.95 754.772 257.95ZM769.05 257.925C770.084 257.925 770.992 258.133 771.775 258.55C772.559 258.95 773.175 259.475 773.625 260.125V258.15H777.15V272.1C777.15 273.383 776.892 274.525 776.375 275.525C775.859 276.542 775.084 277.342 774.05 277.925C773.017 278.525 771.767 278.825 770.3 278.825C768.334 278.825 766.717 278.367 765.45 277.45C764.2 276.533 763.492 275.283 763.325 273.7H766.8C766.984 274.333 767.375 274.833 767.975 275.2C768.592 275.583 769.334 275.775 770.2 275.775C771.217 275.775 772.042 275.467 772.675 274.85C773.309 274.25 773.625 273.333 773.625 272.1V269.95C773.175 270.6 772.55 271.142 771.75 271.575C770.967 272.008 770.067 272.225 769.05 272.225C767.884 272.225 766.817 271.925 765.85 271.325C764.884 270.725 764.117 269.883 763.55 268.8C763 267.7 762.725 266.442 762.725 265.025C762.725 263.625 763 262.383 763.55 261.3C764.117 260.217 764.875 259.383 765.825 258.8C766.792 258.217 767.867 257.925 769.05 257.925ZM773.625 265.075C773.625 264.225 773.459 263.5 773.125 262.9C772.792 262.283 772.342 261.817 771.775 261.5C771.209 261.167 770.6 261 769.95 261C769.3 261 768.7 261.158 768.15 261.475C767.6 261.792 767.15 262.258 766.8 262.875C766.467 263.475 766.3 264.192 766.3 265.025C766.3 265.858 766.467 266.592 766.8 267.225C767.15 267.842 767.6 268.317 768.15 268.65C768.717 268.983 769.317 269.15 769.95 269.15C770.6 269.15 771.209 268.992 771.775 268.675C772.342 268.342 772.792 267.875 773.125 267.275C773.459 266.658 773.625 265.925 773.625 265.075Z" fill="black"/>
<rect x="892" width="363" height="362" rx="40" fill="#B9E1FF"/>
<path d="M991.875 263.25C991.875 261.533 992.258 260 993.025 258.65C993.808 257.283 994.867 256.225 996.2 255.475C997.55 254.708 999.058 254.325 1000.73 254.325C1002.68 254.325 1004.38 254.825 1005.85 255.825C1007.32 256.825 1008.34 258.208 1008.93 259.975H1004.9C1004.5 259.142 1003.93 258.517 1003.2 258.1C1002.48 257.683 1001.65 257.475 1000.7 257.475C999.683 257.475 998.775 257.717 997.975 258.2C997.192 258.667 996.575 259.333 996.125 260.2C995.692 261.067 995.475 262.083 995.475 263.25C995.475 264.4 995.692 265.417 996.125 266.3C996.575 267.167 997.192 267.842 997.975 268.325C998.775 268.792 999.683 269.025 1000.7 269.025C1001.65 269.025 1002.48 268.817 1003.2 268.4C1003.93 267.967 1004.5 267.333 1004.9 266.5H1008.93C1008.34 268.283 1007.32 269.675 1005.85 270.675C1004.4 271.658 1002.69 272.15 1000.73 272.15C999.058 272.15 997.55 271.775 996.2 271.025C994.867 270.258 993.808 269.2 993.025 267.85C992.258 266.5 991.875 264.967 991.875 263.25ZM1018.06 272.225C1016.73 272.225 1015.53 271.933 1014.46 271.35C1013.4 270.75 1012.56 269.908 1011.94 268.825C1011.34 267.742 1011.04 266.492 1011.04 265.075C1011.04 263.658 1011.35 262.408 1011.96 261.325C1012.6 260.242 1013.46 259.408 1014.54 258.825C1015.62 258.225 1016.83 257.925 1018.16 257.925C1019.5 257.925 1020.71 258.225 1021.79 258.825C1022.87 259.408 1023.72 260.242 1024.34 261.325C1024.97 262.408 1025.29 263.658 1025.29 265.075C1025.29 266.492 1024.96 267.742 1024.31 268.825C1023.68 269.908 1022.81 270.75 1021.71 271.35C1020.63 271.933 1019.41 272.225 1018.06 272.225ZM1018.06 269.175C1018.7 269.175 1019.29 269.025 1019.84 268.725C1020.41 268.408 1020.86 267.942 1021.19 267.325C1021.52 266.708 1021.69 265.958 1021.69 265.075C1021.69 263.758 1021.34 262.75 1020.64 262.05C1019.96 261.333 1019.11 260.975 1018.11 260.975C1017.11 260.975 1016.27 261.333 1015.59 262.05C1014.92 262.75 1014.59 263.758 1014.59 265.075C1014.59 266.392 1014.91 267.408 1015.56 268.125C1016.23 268.825 1017.06 269.175 1018.06 269.175ZM1035.53 257.95C1037.18 257.95 1038.52 258.475 1039.53 259.525C1040.55 260.558 1041.06 262.008 1041.06 263.875V272H1037.56V264.35C1037.56 263.25 1037.28 262.408 1036.73 261.825C1036.18 261.225 1035.43 260.925 1034.48 260.925C1033.52 260.925 1032.75 261.225 1032.18 261.825C1031.63 262.408 1031.36 263.25 1031.36 264.35V272H1027.86V258.15H1031.36V259.875C1031.82 259.275 1032.42 258.808 1033.13 258.475C1033.87 258.125 1034.67 257.95 1035.53 257.95ZM1049.69 272.225C1048.55 272.225 1047.54 272.025 1046.64 271.625C1045.74 271.208 1045.02 270.65 1044.49 269.95C1043.97 269.25 1043.69 268.475 1043.64 267.625H1047.16C1047.23 268.158 1047.49 268.6 1047.94 268.95C1048.4 269.3 1048.98 269.475 1049.66 269.475C1050.33 269.475 1050.84 269.342 1051.21 269.075C1051.59 268.808 1051.79 268.467 1051.79 268.05C1051.79 267.6 1051.55 267.267 1051.09 267.05C1050.64 266.817 1049.91 266.567 1048.91 266.3C1047.88 266.05 1047.03 265.792 1046.36 265.525C1045.71 265.258 1045.14 264.85 1044.66 264.3C1044.19 263.75 1043.96 263.008 1043.96 262.075C1043.96 261.308 1044.18 260.608 1044.61 259.975C1045.06 259.342 1045.69 258.842 1046.51 258.475C1047.34 258.108 1048.32 257.925 1049.44 257.925C1051.09 257.925 1052.4 258.342 1053.39 259.175C1054.37 259.992 1054.91 261.1 1055.01 262.5H1051.66C1051.61 261.95 1051.38 261.517 1050.96 261.2C1050.56 260.867 1050.02 260.7 1049.34 260.7C1048.7 260.7 1048.21 260.817 1047.86 261.05C1047.53 261.283 1047.36 261.608 1047.36 262.025C1047.36 262.492 1047.59 262.85 1048.06 263.1C1048.53 263.333 1049.25 263.575 1050.24 263.825C1051.24 264.075 1052.06 264.333 1052.71 264.6C1053.36 264.867 1053.92 265.283 1054.39 265.85C1054.87 266.4 1055.12 267.133 1055.14 268.05C1055.14 268.85 1054.91 269.567 1054.46 270.2C1054.03 270.833 1053.39 271.333 1052.56 271.7C1051.74 272.05 1050.79 272.225 1049.69 272.225ZM1062.08 261.025V267.725C1062.08 268.192 1062.19 268.533 1062.41 268.75C1062.64 268.95 1063.02 269.05 1063.56 269.05H1065.18V272H1062.98C1060.03 272 1058.56 270.567 1058.56 267.7V261.025H1056.91V258.15H1058.56V254.725H1062.08V258.15H1065.18V261.025H1062.08ZM1071.2 260.3C1071.65 259.567 1072.23 258.992 1072.95 258.575C1073.68 258.158 1074.52 257.95 1075.45 257.95V261.625H1074.53C1073.43 261.625 1072.59 261.883 1072.03 262.4C1071.48 262.917 1071.2 263.817 1071.2 265.1V272H1067.7V258.15H1071.2V260.3ZM1090.88 258.15V272H1087.36V270.25C1086.91 270.85 1086.32 271.325 1085.58 271.675C1084.87 272.008 1084.08 272.175 1083.23 272.175C1082.15 272.175 1081.19 271.95 1080.36 271.5C1079.52 271.033 1078.87 270.358 1078.38 269.475C1077.92 268.575 1077.68 267.508 1077.68 266.275V258.15H1081.18V265.775C1081.18 266.875 1081.46 267.725 1082.01 268.325C1082.56 268.908 1083.31 269.2 1084.26 269.2C1085.22 269.2 1085.98 268.908 1086.53 268.325C1087.08 267.725 1087.36 266.875 1087.36 265.775V258.15H1090.88ZM1093.44 265.075C1093.44 263.642 1093.73 262.392 1094.31 261.325C1094.89 260.242 1095.7 259.408 1096.74 258.825C1097.77 258.225 1098.95 257.925 1100.29 257.925C1102 257.925 1103.42 258.358 1104.54 259.225C1105.67 260.075 1106.43 261.275 1106.81 262.825H1103.04C1102.84 262.225 1102.49 261.758 1102.01 261.425C1101.54 261.075 1100.96 260.9 1100.26 260.9C1099.26 260.9 1098.47 261.267 1097.89 262C1097.3 262.717 1097.01 263.742 1097.01 265.075C1097.01 266.392 1097.3 267.417 1097.89 268.15C1098.47 268.867 1099.26 269.225 1100.26 269.225C1101.68 269.225 1102.6 268.592 1103.04 267.325H1106.81C1106.43 268.825 1105.67 270.017 1104.54 270.9C1103.4 271.783 1101.99 272.225 1100.29 272.225C1098.95 272.225 1097.77 271.933 1096.74 271.35C1095.7 270.75 1094.89 269.917 1094.31 268.85C1093.73 267.767 1093.44 266.508 1093.44 265.075ZM1113.45 261.025V267.725C1113.45 268.192 1113.56 268.533 1113.78 268.75C1114.01 268.95 1114.39 269.05 1114.93 269.05H1116.55V272H1114.35C1111.4 272 1109.93 270.567 1109.93 267.7V261.025H1108.28V258.15H1109.93V254.725H1113.45V258.15H1116.55V261.025H1113.45ZM1120.84 256.5C1120.23 256.5 1119.71 256.308 1119.29 255.925C1118.89 255.525 1118.69 255.033 1118.69 254.45C1118.69 253.867 1118.89 253.383 1119.29 253C1119.71 252.6 1120.23 252.4 1120.84 252.4C1121.46 252.4 1121.97 252.6 1122.37 253C1122.78 253.383 1122.99 253.867 1122.99 254.45C1122.99 255.033 1122.78 255.525 1122.37 255.925C1121.97 256.308 1121.46 256.5 1120.84 256.5ZM1122.57 258.15V272H1119.07V258.15H1122.57ZM1132.18 272.225C1130.84 272.225 1129.64 271.933 1128.58 271.35C1127.51 270.75 1126.67 269.908 1126.05 268.825C1125.45 267.742 1125.15 266.492 1125.15 265.075C1125.15 263.658 1125.46 262.408 1126.08 261.325C1126.71 260.242 1127.57 259.408 1128.65 258.825C1129.73 258.225 1130.94 257.925 1132.28 257.925C1133.61 257.925 1134.82 258.225 1135.9 258.825C1136.98 259.408 1137.83 260.242 1138.45 261.325C1139.08 262.408 1139.4 263.658 1139.4 265.075C1139.4 266.492 1139.08 267.742 1138.43 268.825C1137.79 269.908 1136.93 270.75 1135.83 271.35C1134.74 271.933 1133.53 272.225 1132.18 272.225ZM1132.18 269.175C1132.81 269.175 1133.4 269.025 1133.95 268.725C1134.52 268.408 1134.97 267.942 1135.3 267.325C1135.63 266.708 1135.8 265.958 1135.8 265.075C1135.8 263.758 1135.45 262.75 1134.75 262.05C1134.07 261.333 1133.23 260.975 1132.23 260.975C1131.23 260.975 1130.38 261.333 1129.7 262.05C1129.03 262.75 1128.7 263.758 1128.7 265.075C1128.7 266.392 1129.03 267.408 1129.68 268.125C1130.34 268.825 1131.18 269.175 1132.18 269.175ZM1149.64 257.95C1151.29 257.95 1152.63 258.475 1153.64 259.525C1154.66 260.558 1155.17 262.008 1155.17 263.875V272H1151.67V264.35C1151.67 263.25 1151.39 262.408 1150.84 261.825C1150.29 261.225 1149.54 260.925 1148.59 260.925C1147.63 260.925 1146.86 261.225 1146.29 261.825C1145.74 262.408 1145.47 263.25 1145.47 264.35V272H1141.97V258.15H1145.47V259.875C1145.93 259.275 1146.53 258.808 1147.24 258.475C1147.98 258.125 1148.78 257.95 1149.64 257.95Z" fill="black"/>
<g clip-path="url(#clip2_34_302)">
<path d="M1034.92 143.214V123.312C1034.92 119.897 1038.12 116.4 1041.33 115.579C1044.54 114.758 1059.06 114.852 1062.37 115.579C1065.67 116.306 1067.4 117.93 1069.3 120.423C1073.56 126.012 1079.66 134.743 1083.14 140.762C1084.14 142.505 1085.08 144.868 1085.26 146.888C1085.64 151.236 1085.65 159.672 1085.26 164.014C1084.84 168.681 1080.54 171.156 1076.26 171.517C1060.71 172.822 1043.42 170.542 1027.7 171.534C1023.37 171.162 1019.75 169.514 1018.58 165.042C1017.83 162.177 1017.79 152.241 1018.58 149.411C1019.37 146.581 1022.85 143.22 1025.94 143.22H1034.92V143.214ZM1071.12 143.214L1059.79 126.407H1046.4V143.214H1071.12H1071.12Z" fill="black"/>
<path d="M1118.8 137.909L1090.84 165.621V143.362L1117.23 117.026C1121.99 113.364 1129.27 115.992 1130 122.124V192.021C1128.2 207.93 1112.46 204.722 1100.77 204.77C1095.84 202.619 1095.11 197.946 1098.77 194.059C1099.27 193.534 1099.92 193.25 1100.41 192.754C1106.56 186.521 1112.61 180.206 1118.8 174.021V137.903V137.909Z" fill="black"/>
<path d="M1031.33 176.916C1045.91 175.487 1062.39 177.808 1077.17 176.816C1094.6 178.104 1095.6 201.479 1079.18 204.805L1030.64 204.847C1014.04 202.596 1014.06 178.606 1031.33 176.916ZM1032.49 188.105C1028.93 188.052 1028.49 193.233 1031.82 193.634L1078.18 193.475C1080.85 191.366 1079.67 188.07 1076.26 188.028L1032.49 188.099V188.105Z" fill="black"/>
</g>
<rect x="112" width="363" height="362" rx="40" fill="#6EC2FF"/>
<path d="M270.75 254.55V272H267.25V260.65L262.575 272H259.925L255.225 260.65V272H251.725V254.55H255.7L261.25 267.525L266.8 254.55H270.75ZM275.985 256.5C275.369 256.5 274.852 256.308 274.435 255.925C274.035 255.525 273.835 255.033 273.835 254.45C273.835 253.867 274.035 253.383 274.435 253C274.852 252.6 275.369 252.4 275.985 252.4C276.602 252.4 277.11 252.6 277.51 253C277.927 253.383 278.135 253.867 278.135 254.45C278.135 255.033 277.927 255.525 277.51 255.925C277.11 256.308 276.602 256.5 275.985 256.5ZM277.71 258.15V272H274.21V258.15H277.71ZM288.843 257.95C290.493 257.95 291.827 258.475 292.843 259.525C293.86 260.558 294.368 262.008 294.368 263.875V272H290.868V264.35C290.868 263.25 290.593 262.408 290.043 261.825C289.493 261.225 288.743 260.925 287.793 260.925C286.827 260.925 286.06 261.225 285.493 261.825C284.943 262.408 284.668 263.25 284.668 264.35V272H281.168V258.15H284.668V259.875C285.135 259.275 285.727 258.808 286.443 258.475C287.177 258.125 287.977 257.95 288.843 257.95ZM299.472 256.5C298.855 256.5 298.338 256.308 297.922 255.925C297.522 255.525 297.322 255.033 297.322 254.45C297.322 253.867 297.522 253.383 297.922 253C298.338 252.6 298.855 252.4 299.472 252.4C300.088 252.4 300.597 252.6 300.997 253C301.413 253.383 301.622 253.867 301.622 254.45C301.622 255.033 301.413 255.525 300.997 255.925C300.597 256.308 300.088 256.5 299.472 256.5ZM301.197 258.15V272H297.697V258.15H301.197ZM312.33 257.95C313.98 257.95 315.313 258.475 316.33 259.525C317.346 260.558 317.855 262.008 317.855 263.875V272H314.355V264.35C314.355 263.25 314.08 262.408 313.53 261.825C312.98 261.225 312.23 260.925 311.28 260.925C310.313 260.925 309.546 261.225 308.98 261.825C308.43 262.408 308.155 263.25 308.155 264.35V272H304.655V258.15H308.155V259.875C308.621 259.275 309.213 258.808 309.93 258.475C310.663 258.125 311.463 257.95 312.33 257.95ZM326.608 257.925C327.641 257.925 328.55 258.133 329.333 258.55C330.116 258.95 330.733 259.475 331.183 260.125V258.15H334.708V272.1C334.708 273.383 334.45 274.525 333.933 275.525C333.416 276.542 332.641 277.342 331.608 277.925C330.575 278.525 329.325 278.825 327.858 278.825C325.891 278.825 324.275 278.367 323.008 277.45C321.758 276.533 321.05 275.283 320.883 273.7H324.358C324.541 274.333 324.933 274.833 325.533 275.2C326.15 275.583 326.891 275.775 327.758 275.775C328.775 275.775 329.6 275.467 330.233 274.85C330.866 274.25 331.183 273.333 331.183 272.1V269.95C330.733 270.6 330.108 271.142 329.308 271.575C328.525 272.008 327.625 272.225 326.608 272.225C325.441 272.225 324.375 271.925 323.408 271.325C322.441 270.725 321.675 269.883 321.108 268.8C320.558 267.7 320.283 266.442 320.283 265.025C320.283 263.625 320.558 262.383 321.108 261.3C321.675 260.217 322.433 259.383 323.383 258.8C324.35 258.217 325.425 257.925 326.608 257.925ZM331.183 265.075C331.183 264.225 331.016 263.5 330.683 262.9C330.35 262.283 329.9 261.817 329.333 261.5C328.766 261.167 328.158 261 327.508 261C326.858 261 326.258 261.158 325.708 261.475C325.158 261.792 324.708 262.258 324.358 262.875C324.025 263.475 323.858 264.192 323.858 265.025C323.858 265.858 324.025 266.592 324.358 267.225C324.708 267.842 325.158 268.317 325.708 268.65C326.275 268.983 326.875 269.15 327.508 269.15C328.158 269.15 328.766 268.992 329.333 268.675C329.9 268.342 330.35 267.875 330.683 267.275C331.016 266.658 331.183 265.925 331.183 265.075Z" fill="black"/>
<g clip-path="url(#clip3_34_302)">
<path d="M308.821 154.854C310.795 156.796 312.27 159.031 313.424 161.558C318.404 162.5 322.739 165.714 324.875 170.325C325.464 171.592 325.793 172.897 326.163 174.229C330.806 175.103 334.877 177.975 337.115 182.139C342.567 192.279 335.551 204.313 324.25 205H263.75C253.241 204.362 246.181 193.791 250.093 183.821C252.059 178.812 256.556 175.212 261.837 174.229C262.105 173.384 262.259 172.511 262.556 171.674C264.428 166.388 269.092 162.598 274.576 161.558C276.392 157.495 279.382 153.932 283.237 151.677C291.634 146.761 301.923 148.074 308.817 154.854H308.821Z" fill="black"/>
<path d="M292.393 145.925L288.01 146.656C288.152 145.604 288.294 144.645 288.331 143.581C288.766 131.238 275.267 123.312 264.684 129.841C251.908 137.722 256.637 157.024 271.753 158.564C272.135 158.604 273.374 158.381 272.703 159.039C272.48 159.259 270.831 159.709 270.363 159.896C269.632 160.189 268.897 160.555 268.206 160.936C267.812 161.152 267.036 161.814 266.646 161.761C266.22 161.704 264.888 161.079 264.424 160.859C250.076 154.03 249.443 133.769 263.275 125.961C276.875 118.283 293.474 128.894 292.564 144.385C292.535 144.893 292.332 145.401 292.389 145.929L292.393 145.925Z" fill="black"/>
<path d="M284.63 147.834C284.504 147.981 283.282 148.468 282.985 148.627C280.211 150.118 277.858 152.003 275.783 154.371C275.019 155.241 275.194 155.655 273.821 155.765C262.032 156.723 255.467 141.992 264.112 133.908C273.089 125.51 287.649 133.42 285.349 145.559C285.28 145.933 284.817 147.607 284.626 147.834H284.63ZM270.827 136.109V134.472C270.827 134.395 270.579 133.932 270.506 133.834C269.819 132.912 268.206 133.233 268.036 134.399C267.987 134.728 268.109 135.874 267.995 136.036C267.881 136.199 266.582 136.061 266.248 136.13C265.213 136.341 264.879 137.751 265.578 138.482C265.659 138.567 266.244 138.909 266.309 138.909H267.906C267.971 138.909 268.048 139.104 268.032 139.185C267.808 141.679 268.316 144.67 268.032 147.103C268.024 147.184 267.995 147.379 267.906 147.379H266.147C266.123 147.379 265.806 147.574 265.749 147.619C265.022 148.167 265.018 149.317 265.749 149.858C265.879 149.955 266.338 150.178 266.468 150.178H268.028C268.101 151.129 267.707 152.177 268.69 152.754C269.279 153.1 269.961 153.018 270.424 152.514C270.534 152.397 270.823 151.86 270.823 151.739V150.178H273.617V151.897C273.617 151.925 273.857 152.352 273.902 152.413C274.466 153.16 275.624 153.152 276.16 152.364C276.599 151.718 276.347 150.922 276.416 150.183C280.637 149.988 282.181 144.856 278.74 142.37C278.874 141.838 279.154 141.342 279.211 140.786C279.406 138.811 278.309 137.036 276.453 136.353C276.299 135.533 276.644 134.586 276.148 133.859C275.697 133.193 274.625 133.107 274.044 133.66C273.959 133.741 273.617 134.326 273.617 134.391V135.988C273.617 135.988 273.508 136.109 273.496 136.109H270.819H270.827Z" fill="black"/>
<path d="M306.928 122.065L325.846 122.041C329.872 122.414 333.686 125.023 335.246 128.785C335.579 129.593 335.88 130.438 335.031 131.076C334.036 131.819 332.862 130.763 331.927 130.345C330.367 129.646 328.73 129.276 327.036 129.081H305.937C304.389 129.26 302.878 129.573 301.436 130.17C300.83 130.422 299.762 131.149 299.271 131.279C298.621 131.45 297.967 131.279 297.601 130.702C297.146 129.987 297.438 129.483 297.735 128.785C299.311 125.059 302.918 122.52 306.924 122.069L306.928 122.065Z" fill="black"/>
<path d="M319.335 160.445C319.335 160.465 319.241 160.652 319.217 160.644C317.998 159.957 316.645 159.571 315.345 159.084C315.26 158.637 313.664 156.455 313.664 156.293V131.998C313.664 131.998 313.773 131.876 313.785 131.876H319.221C319.221 131.876 319.343 131.986 319.343 131.998V160.449L319.335 160.445Z" fill="black"/>
<path d="M313.659 117.368C313.988 115.093 317.133 114.134 318.607 115.954C318.859 116.263 319.33 117.153 319.33 117.531V119.127C319.33 119.127 319.221 119.249 319.209 119.249H313.773C313.773 119.249 313.651 119.14 313.651 119.127C313.651 118.611 313.582 117.844 313.651 117.368H313.659Z" fill="black"/>
<path d="M276.701 144.499C277.16 144.584 277.712 145.157 277.818 145.616C277.968 146.262 277.542 147.062 276.9 147.257C276.839 147.278 276.327 147.375 276.299 147.375H270.945C270.945 147.375 270.823 147.265 270.823 147.253V144.495H276.697L276.701 144.499Z" fill="black"/>
<path d="M270.827 141.704V138.909H275.34C275.368 138.909 275.766 139.108 275.819 139.148C276.64 139.713 276.628 140.899 275.819 141.468C275.766 141.505 275.441 141.708 275.421 141.708H270.827V141.704Z" fill="black"/>
</g>
<rect x="1282" width="363" height="362" rx="40" fill="#6EC2FF"/>
<path d="M1393.43 268.675H1386.48L1385.33 272H1381.65L1387.93 254.525H1392L1398.28 272H1394.58L1393.43 268.675ZM1392.48 265.875L1389.95 258.575L1387.42 265.875H1392.48ZM1406.05 257.925C1407.08 257.925 1407.99 258.133 1408.77 258.55C1409.55 258.95 1410.17 259.475 1410.62 260.125V258.15H1414.15V272.1C1414.15 273.383 1413.89 274.525 1413.37 275.525C1412.85 276.542 1412.08 277.342 1411.05 277.925C1410.01 278.525 1408.76 278.825 1407.3 278.825C1405.33 278.825 1403.71 278.367 1402.45 277.45C1401.2 276.533 1400.49 275.283 1400.32 273.7H1403.8C1403.98 274.333 1404.37 274.833 1404.97 275.2C1405.59 275.583 1406.33 275.775 1407.2 275.775C1408.21 275.775 1409.04 275.467 1409.67 274.85C1410.3 274.25 1410.62 273.333 1410.62 272.1V269.95C1410.17 270.6 1409.55 271.142 1408.75 271.575C1407.96 272.008 1407.06 272.225 1406.05 272.225C1404.88 272.225 1403.81 271.925 1402.85 271.325C1401.88 270.725 1401.11 269.883 1400.55 268.8C1400 267.7 1399.72 266.442 1399.72 265.025C1399.72 263.625 1400 262.383 1400.55 261.3C1401.11 260.217 1401.87 259.383 1402.82 258.8C1403.79 258.217 1404.86 257.925 1406.05 257.925ZM1410.62 265.075C1410.62 264.225 1410.45 263.5 1410.12 262.9C1409.79 262.283 1409.34 261.817 1408.77 261.5C1408.2 261.167 1407.6 261 1406.95 261C1406.3 261 1405.7 261.158 1405.15 261.475C1404.6 261.792 1404.15 262.258 1403.8 262.875C1403.46 263.475 1403.3 264.192 1403.3 265.025C1403.3 265.858 1403.46 266.592 1403.8 267.225C1404.15 267.842 1404.6 268.317 1405.15 268.65C1405.71 268.983 1406.31 269.15 1406.95 269.15C1407.6 269.15 1408.2 268.992 1408.77 268.675C1409.34 268.342 1409.79 267.875 1410.12 267.275C1410.45 266.658 1410.62 265.925 1410.62 265.075ZM1421.06 260.3C1421.51 259.567 1422.1 258.992 1422.81 258.575C1423.55 258.158 1424.38 257.95 1425.31 257.95V261.625H1424.39C1423.29 261.625 1422.46 261.883 1421.89 262.4C1421.34 262.917 1421.06 263.817 1421.06 265.1V272H1417.56V258.15H1421.06V260.3ZM1429.45 256.5C1428.83 256.5 1428.31 256.308 1427.9 255.925C1427.5 255.525 1427.3 255.033 1427.3 254.45C1427.3 253.867 1427.5 253.383 1427.9 253C1428.31 252.6 1428.83 252.4 1429.45 252.4C1430.06 252.4 1430.57 252.6 1430.97 253C1431.39 253.383 1431.6 253.867 1431.6 254.45C1431.6 255.033 1431.39 255.525 1430.97 255.925C1430.57 256.308 1430.06 256.5 1429.45 256.5ZM1431.17 258.15V272H1427.67V258.15H1431.17ZM1438.13 260.175C1438.58 259.508 1439.2 258.967 1439.98 258.55C1440.78 258.133 1441.69 257.925 1442.7 257.925C1443.89 257.925 1444.95 258.217 1445.9 258.8C1446.87 259.383 1447.63 260.217 1448.18 261.3C1448.75 262.367 1449.03 263.608 1449.03 265.025C1449.03 266.442 1448.75 267.7 1448.18 268.8C1447.63 269.883 1446.87 270.725 1445.9 271.325C1444.95 271.925 1443.89 272.225 1442.7 272.225C1441.67 272.225 1440.76 272.025 1439.98 271.625C1439.21 271.208 1438.6 270.675 1438.13 270.025V272H1434.63V253.5H1438.13V260.175ZM1445.45 265.025C1445.45 264.192 1445.28 263.475 1444.93 262.875C1444.6 262.258 1444.15 261.792 1443.58 261.475C1443.03 261.158 1442.43 261 1441.78 261C1441.15 261 1440.55 261.167 1439.98 261.5C1439.43 261.817 1438.98 262.283 1438.63 262.9C1438.3 263.517 1438.13 264.242 1438.13 265.075C1438.13 265.908 1438.3 266.633 1438.63 267.25C1438.98 267.867 1439.43 268.342 1439.98 268.675C1440.55 268.992 1441.15 269.15 1441.78 269.15C1442.43 269.15 1443.03 268.983 1443.58 268.65C1444.15 268.317 1444.6 267.842 1444.93 267.225C1445.28 266.608 1445.45 265.875 1445.45 265.025ZM1464.65 258.15V272H1461.12V270.25C1460.67 270.85 1460.08 271.325 1459.35 271.675C1458.63 272.008 1457.85 272.175 1457 272.175C1455.91 272.175 1454.96 271.95 1454.12 271.5C1453.29 271.033 1452.63 270.358 1452.15 269.475C1451.68 268.575 1451.45 267.508 1451.45 266.275V258.15H1454.95V265.775C1454.95 266.875 1455.22 267.725 1455.77 268.325C1456.32 268.908 1457.07 269.2 1458.02 269.2C1458.99 269.2 1459.75 268.908 1460.3 268.325C1460.85 267.725 1461.12 266.875 1461.12 265.775V258.15H1464.65ZM1473.4 272.225C1472.27 272.225 1471.25 272.025 1470.35 271.625C1469.45 271.208 1468.73 270.65 1468.2 269.95C1467.68 269.25 1467.4 268.475 1467.35 267.625H1470.88C1470.94 268.158 1471.2 268.6 1471.65 268.95C1472.12 269.3 1472.69 269.475 1473.38 269.475C1474.04 269.475 1474.56 269.342 1474.93 269.075C1475.31 268.808 1475.5 268.467 1475.5 268.05C1475.5 267.6 1475.27 267.267 1474.8 267.05C1474.35 266.817 1473.63 266.567 1472.63 266.3C1471.59 266.05 1470.74 265.792 1470.08 265.525C1469.43 265.258 1468.86 264.85 1468.38 264.3C1467.91 263.75 1467.68 263.008 1467.68 262.075C1467.68 261.308 1467.89 260.608 1468.33 259.975C1468.78 259.342 1469.41 258.842 1470.23 258.475C1471.06 258.108 1472.03 257.925 1473.15 257.925C1474.8 257.925 1476.12 258.342 1477.1 259.175C1478.08 259.992 1478.63 261.1 1478.73 262.5H1475.38C1475.33 261.95 1475.09 261.517 1474.68 261.2C1474.28 260.867 1473.73 260.7 1473.05 260.7C1472.42 260.7 1471.93 260.817 1471.58 261.05C1471.24 261.283 1471.08 261.608 1471.08 262.025C1471.08 262.492 1471.31 262.85 1471.78 263.1C1472.24 263.333 1472.97 263.575 1473.95 263.825C1474.95 264.075 1475.78 264.333 1476.43 264.6C1477.08 264.867 1477.63 265.283 1478.1 265.85C1478.58 266.4 1478.83 267.133 1478.85 268.05C1478.85 268.85 1478.63 269.567 1478.18 270.2C1477.74 270.833 1477.11 271.333 1476.28 271.7C1475.46 272.05 1474.5 272.225 1473.4 272.225ZM1483.5 256.5C1482.88 256.5 1482.37 256.308 1481.95 255.925C1481.55 255.525 1481.35 255.033 1481.35 254.45C1481.35 253.867 1481.55 253.383 1481.95 253C1482.37 252.6 1482.88 252.4 1483.5 252.4C1484.12 252.4 1484.62 252.6 1485.02 253C1485.44 253.383 1485.65 253.867 1485.65 254.45C1485.65 255.033 1485.44 255.525 1485.02 255.925C1484.62 256.308 1484.12 256.5 1483.5 256.5ZM1485.22 258.15V272H1481.72V258.15H1485.22ZM1496.36 257.95C1498.01 257.95 1499.34 258.475 1500.36 259.525C1501.37 260.558 1501.88 262.008 1501.88 263.875V272H1498.38V264.35C1498.38 263.25 1498.11 262.408 1497.56 261.825C1497.01 261.225 1496.26 260.925 1495.31 260.925C1494.34 260.925 1493.57 261.225 1493.01 261.825C1492.46 262.408 1492.18 263.25 1492.18 264.35V272H1488.68V258.15H1492.18V259.875C1492.65 259.275 1493.24 258.808 1493.96 258.475C1494.69 258.125 1495.49 257.95 1496.36 257.95ZM1518.09 264.775C1518.09 265.275 1518.05 265.725 1517.99 266.125H1507.86C1507.94 267.125 1508.29 267.908 1508.91 268.475C1509.53 269.042 1510.29 269.325 1511.19 269.325C1512.49 269.325 1513.41 268.767 1513.96 267.65H1517.74C1517.34 268.983 1516.57 270.083 1515.44 270.95C1514.3 271.8 1512.91 272.225 1511.26 272.225C1509.93 272.225 1508.73 271.933 1507.66 271.35C1506.61 270.75 1505.79 269.908 1505.19 268.825C1504.6 267.742 1504.31 266.492 1504.31 265.075C1504.31 263.642 1504.6 262.383 1505.19 261.3C1505.77 260.217 1506.59 259.383 1507.64 258.8C1508.69 258.217 1509.89 257.925 1511.26 257.925C1512.58 257.925 1513.75 258.208 1514.79 258.775C1515.84 259.342 1516.64 260.15 1517.21 261.2C1517.79 262.233 1518.09 263.425 1518.09 264.775ZM1514.46 263.775C1514.44 262.875 1514.12 262.158 1513.49 261.625C1512.85 261.075 1512.08 260.8 1511.16 260.8C1510.29 260.8 1509.56 261.067 1508.96 261.6C1508.38 262.117 1508.02 262.842 1507.89 263.775H1514.46ZM1525.94 272.225C1524.81 272.225 1523.79 272.025 1522.89 271.625C1521.99 271.208 1521.27 270.65 1520.74 269.95C1520.22 269.25 1519.94 268.475 1519.89 267.625H1523.42C1523.48 268.158 1523.74 268.6 1524.19 268.95C1524.66 269.3 1525.23 269.475 1525.92 269.475C1526.58 269.475 1527.1 269.342 1527.47 269.075C1527.85 268.808 1528.04 268.467 1528.04 268.05C1528.04 267.6 1527.81 267.267 1527.34 267.05C1526.89 266.817 1526.17 266.567 1525.17 266.3C1524.13 266.05 1523.28 265.792 1522.62 265.525C1521.97 265.258 1521.4 264.85 1520.92 264.3C1520.45 263.75 1520.22 263.008 1520.22 262.075C1520.22 261.308 1520.43 260.608 1520.87 259.975C1521.32 259.342 1521.95 258.842 1522.77 258.475C1523.6 258.108 1524.57 257.925 1525.69 257.925C1527.34 257.925 1528.66 258.342 1529.64 259.175C1530.62 259.992 1531.17 261.1 1531.27 262.5H1527.92C1527.87 261.95 1527.63 261.517 1527.22 261.2C1526.82 260.867 1526.27 260.7 1525.59 260.7C1524.96 260.7 1524.47 260.817 1524.12 261.05C1523.78 261.283 1523.62 261.608 1523.62 262.025C1523.62 262.492 1523.85 262.85 1524.32 263.1C1524.78 263.333 1525.51 263.575 1526.49 263.825C1527.49 264.075 1528.32 264.333 1528.97 264.6C1529.62 264.867 1530.17 265.283 1530.64 265.85C1531.12 266.4 1531.37 267.133 1531.39 268.05C1531.39 268.85 1531.17 269.567 1530.72 270.2C1530.28 270.833 1529.65 271.333 1528.82 271.7C1528 272.05 1527.04 272.225 1525.94 272.225ZM1539.56 272.225C1538.43 272.225 1537.41 272.025 1536.51 271.625C1535.61 271.208 1534.9 270.65 1534.36 269.95C1533.85 269.25 1533.56 268.475 1533.51 267.625H1537.04C1537.1 268.158 1537.36 268.6 1537.81 268.95C1538.28 269.3 1538.85 269.475 1539.54 269.475C1540.2 269.475 1540.72 269.342 1541.09 269.075C1541.47 268.808 1541.66 268.467 1541.66 268.05C1541.66 267.6 1541.43 267.267 1540.96 267.05C1540.51 266.817 1539.79 266.567 1538.79 266.3C1537.75 266.05 1536.9 265.792 1536.24 265.525C1535.59 265.258 1535.02 264.85 1534.54 264.3C1534.07 263.75 1533.84 263.008 1533.84 262.075C1533.84 261.308 1534.05 260.608 1534.49 259.975C1534.94 259.342 1535.57 258.842 1536.39 258.475C1537.22 258.108 1538.2 257.925 1539.31 257.925C1540.96 257.925 1542.28 258.342 1543.26 259.175C1544.25 259.992 1544.79 261.1 1544.89 262.5H1541.54C1541.49 261.95 1541.25 261.517 1540.84 261.2C1540.44 260.867 1539.9 260.7 1539.21 260.7C1538.58 260.7 1538.09 260.817 1537.74 261.05C1537.4 261.283 1537.24 261.608 1537.24 262.025C1537.24 262.492 1537.47 262.85 1537.94 263.1C1538.4 263.333 1539.13 263.575 1540.11 263.825C1541.11 264.075 1541.94 264.333 1542.59 264.6C1543.24 264.867 1543.8 265.283 1544.26 265.85C1544.75 266.4 1545 267.133 1545.01 268.05C1545.01 268.85 1544.79 269.567 1544.34 270.2C1543.9 270.833 1543.27 271.333 1542.44 271.7C1541.62 272.05 1540.66 272.225 1539.56 272.225Z" fill="black"/>
<g clip-path="url(#clip4_34_302)">
<path d="M1461.62 125.208C1461.85 126.815 1463.86 127.433 1464.95 126.219L1469.34 121.764L1469.57 121.691C1476.9 122.974 1483.7 126.331 1489.11 131.464C1496.12 138.114 1500.4 147.343 1500.91 157.09H1497.11C1496.67 157.09 1495.92 157.527 1495.67 157.903C1495.09 158.762 1495.28 159.644 1495.91 160.404C1497.04 161.791 1498.83 163.105 1500 164.474C1500.17 164.682 1500.46 164.932 1500.42 165.2C1499.46 170.402 1497.56 175.894 1494.44 180.176C1494.37 180.262 1494.35 180.435 1494.34 180.444C1494.14 180.599 1493.64 179.498 1493.55 179.351C1491.62 176.451 1488.51 174.425 1485.02 174.14C1484.57 174.105 1483.37 174.239 1483.06 174.097C1482.91 174.028 1482.45 173.457 1482.26 173.289C1481.87 172.952 1481.37 172.632 1481.07 172.252C1482 171.102 1482.97 170.005 1483.78 168.761C1491.57 156.835 1487.71 140.818 1475.5 133.81C1463.28 126.802 1448.27 131.563 1441.96 143.748C1437.13 153.107 1438.73 164.565 1445.91 172.178C1446.03 172.472 1445.59 172.571 1445.35 172.77C1445.06 173.008 1444.72 173.315 1444.44 173.574C1444.31 173.695 1444.05 174.071 1444 174.101C1443.8 174.226 1442.28 174.11 1441.88 174.144C1439.09 174.39 1436.22 175.933 1434.4 178.059C1433.76 178.798 1433.33 179.683 1432.76 180.444C1429.67 176.024 1427.46 170.705 1426.58 165.352C1426.37 164.124 1426.12 162.47 1426.07 161.247C1426.07 161.147 1426.08 160.888 1426.19 160.888H1430.19C1430.55 160.888 1431.24 160.253 1431.41 159.938C1431.98 158.931 1431.59 158.222 1430.92 157.445C1429.69 155.997 1428 154.692 1426.73 153.24L1426.57 152.986C1426.83 151.279 1427.23 149.555 1427.73 147.891C1430.68 138.183 1437.62 129.887 1446.57 125.294C1451.2 122.918 1456.23 121.613 1461.42 121.207C1461.49 121.189 1461.61 121.289 1461.61 121.323V125.203L1461.62 125.208Z" fill="black"/>
<path d="M1465.38 192.615C1465.36 192.503 1465 191.859 1464.9 191.751C1464.24 190.999 1463.11 190.965 1462.34 191.565C1460.86 192.719 1459.47 194.737 1457.98 195.973C1457.87 196.063 1457.68 196.245 1457.56 196.275C1457.39 196.318 1456.48 196.154 1456.24 196.111C1449.28 194.854 1441.37 190.503 1436.57 185.261C1436.41 185.089 1435.75 184.41 1435.69 184.294C1435.5 183.965 1435.81 183.062 1435.95 182.691C1437.18 179.398 1440.34 177.73 1443.74 177.946C1444.45 177.994 1444.63 178.288 1445.46 177.903C1446.28 177.519 1447.12 176.037 1448.1 175.402C1449.21 174.676 1449.27 175.181 1450.15 175.747C1458.01 180.798 1467.68 181.273 1475.77 176.439C1476.37 176.084 1477.13 175.406 1477.68 175.129C1477.9 175.017 1478.04 175.004 1478.27 175.073C1479.89 175.566 1480.79 178.111 1482.39 178.115C1482.72 178.115 1482.98 177.968 1483.27 177.946C1486.13 177.765 1488.78 178.841 1490.35 181.304C1490.69 181.827 1491.6 183.697 1491.36 184.25C1491.33 184.307 1490.67 185.011 1490.56 185.141C1484.69 191.639 1475.65 195.8 1467.03 196.616C1466.81 196.638 1465.39 196.94 1465.39 196.655V192.615H1465.38Z" fill="black"/>
<path d="M1477.34 139.846C1488.88 150.329 1485 169.659 1470.43 174.831C1454.69 180.414 1439.26 165.883 1443.65 149.654C1447.68 134.783 1465.96 129.507 1477.34 139.846ZM1459.99 150.337C1457.22 147.74 1453.38 146.021 1449.58 145.779C1448.12 145.684 1446.89 145.917 1446.66 147.593C1446.7 153.651 1445.95 159.121 1449.35 164.44C1456.58 175.765 1473.45 174.46 1478.89 162.202C1481 157.453 1480.22 152.575 1480.36 147.511C1480 145.183 1477.28 145.736 1475.6 146.029C1470.56 146.919 1466 150.242 1463.66 154.835L1463.35 154.749C1462.48 153.111 1461.34 151.594 1459.99 150.337H1459.99Z" fill="black"/>
<path d="M1425.13 157.095C1423.89 156.952 1422.49 157.414 1422.33 158.832C1422.1 160.849 1422.67 164.824 1423.07 166.894C1426.11 182.851 1438.57 195.934 1454.26 199.524C1454.21 199.667 1454.16 199.805 1454.06 199.93C1453.31 200.963 1450.73 202.804 1450.47 203.901C1450.31 204.597 1450.49 205.133 1450.9 205.681C1451 205.807 1451.92 206.58 1451.78 206.714C1435.89 202.83 1422.72 190.589 1417.45 174.987C1415.76 169.966 1415.15 165.477 1414.89 160.197C1414.87 159.765 1414.85 158.806 1414.77 158.46C1414.45 157.194 1413.21 157.159 1412.21 157.09C1412.09 157.082 1411.97 157.151 1412.01 156.969L1418.61 150.458L1425.13 157.09V157.095Z" fill="black"/>
<path d="M1465.38 118.904C1465.35 118.744 1464.95 118.07 1464.81 117.94C1463.94 117.132 1462.07 117.413 1460.94 117.487C1449.06 118.295 1437.97 124.305 1430.78 133.819C1427.24 138.507 1424.77 143.882 1423.37 149.62C1423.25 149.715 1422.8 149.274 1422.69 149.171C1421.84 148.393 1420.07 146.124 1419.09 145.848C1418.35 145.636 1417.83 145.878 1417.25 146.34C1417.05 146.5 1416.59 147.084 1416.45 147.144C1416.33 147.196 1416.32 147.118 1416.33 147.023C1416.35 146.643 1416.63 145.688 1416.75 145.269C1422.31 125.368 1440.46 111.049 1460.86 109.891C1462.07 109.822 1464.12 110.223 1464.95 109.169C1465.04 109.044 1465.38 108.43 1465.38 108.318V107.104C1465.38 107.104 1465.5 106.944 1465.54 107.022C1466.19 107.864 1471.95 113.188 1471.95 113.65C1471.95 114.112 1466.19 119.435 1465.54 120.278C1465.5 120.36 1465.38 120.204 1465.38 120.196C1465.38 119.85 1465.44 119.193 1465.38 118.904Z" fill="black"/>
</g>
<rect x="-278" width="363" height="362" rx="40" fill="#B9E1FF"/>
<path d="M-202.775 269.225H-197.025V272H-206.275V254.55H-202.775V269.225ZM-193.025 256.5C-193.642 256.5 -194.159 256.308 -194.575 255.925C-194.975 255.525 -195.175 255.033 -195.175 254.45C-195.175 253.867 -194.975 253.383 -194.575 253C-194.159 252.6 -193.642 252.4 -193.025 252.4C-192.409 252.4 -191.9 252.6 -191.5 253C-191.084 253.383 -190.875 253.867 -190.875 254.45C-190.875 255.033 -191.084 255.525 -191.5 255.925C-191.9 256.308 -192.409 256.5 -193.025 256.5ZM-191.3 258.15V272H-194.8V258.15H-191.3ZM-181.492 261.025H-183.917V272H-187.467V261.025H-189.042V258.15H-187.467V257.45C-187.467 255.75 -186.984 254.5 -186.017 253.7C-185.051 252.9 -183.592 252.525 -181.642 252.575V255.525C-182.492 255.508 -183.084 255.65 -183.417 255.95C-183.751 256.25 -183.917 256.792 -183.917 257.575V258.15H-181.492V261.025ZM-175.149 261.025V267.725C-175.149 268.192 -175.041 268.533 -174.824 268.75C-174.591 268.95 -174.208 269.05 -173.674 269.05H-172.049V272H-174.249C-177.199 272 -178.674 270.567 -178.674 267.7V261.025H-180.324V258.15H-178.674V254.725H-175.149V258.15H-172.049V261.025H-175.149ZM-167.757 256.5C-168.374 256.5 -168.89 256.308 -169.307 255.925C-169.707 255.525 -169.907 255.033 -169.907 254.45C-169.907 253.867 -169.707 253.383 -169.307 253C-168.89 252.6 -168.374 252.4 -167.757 252.4C-167.14 252.4 -166.632 252.6 -166.232 253C-165.815 253.383 -165.607 253.867 -165.607 254.45C-165.607 255.033 -165.815 255.525 -166.232 255.925C-166.632 256.308 -167.14 256.5 -167.757 256.5ZM-166.032 258.15V272H-169.532V258.15H-166.032ZM-154.899 257.95C-153.249 257.95 -151.915 258.475 -150.899 259.525C-149.882 260.558 -149.374 262.008 -149.374 263.875V272H-152.874V264.35C-152.874 263.25 -153.149 262.408 -153.699 261.825C-154.249 261.225 -154.999 260.925 -155.949 260.925C-156.915 260.925 -157.682 261.225 -158.249 261.825C-158.799 262.408 -159.074 263.25 -159.074 264.35V272H-162.574V258.15H-159.074V259.875C-158.607 259.275 -158.015 258.808 -157.299 258.475C-156.565 258.125 -155.765 257.95 -154.899 257.95ZM-140.621 257.925C-139.587 257.925 -138.679 258.133 -137.896 258.55C-137.112 258.95 -136.496 259.475 -136.046 260.125V258.15H-132.521V272.1C-132.521 273.383 -132.779 274.525 -133.296 275.525C-133.812 276.542 -134.587 277.342 -135.621 277.925C-136.654 278.525 -137.904 278.825 -139.371 278.825C-141.337 278.825 -142.954 278.367 -144.221 277.45C-145.471 276.533 -146.179 275.283 -146.346 273.7H-142.871C-142.687 274.333 -142.296 274.833 -141.696 275.2C-141.079 275.583 -140.337 275.775 -139.471 275.775C-138.454 275.775 -137.629 275.467 -136.996 274.85C-136.362 274.25 -136.046 273.333 -136.046 272.1V269.95C-136.496 270.6 -137.121 271.142 -137.921 271.575C-138.704 272.008 -139.604 272.225 -140.621 272.225C-141.787 272.225 -142.854 271.925 -143.821 271.325C-144.787 270.725 -145.554 269.883 -146.121 268.8C-146.671 267.7 -146.946 266.442 -146.946 265.025C-146.946 263.625 -146.671 262.383 -146.121 261.3C-145.554 260.217 -144.796 259.383 -143.846 258.8C-142.879 258.217 -141.804 257.925 -140.621 257.925ZM-136.046 265.075C-136.046 264.225 -136.212 263.5 -136.546 262.9C-136.879 262.283 -137.329 261.817 -137.896 261.5C-138.462 261.167 -139.071 261 -139.721 261C-140.371 261 -140.971 261.158 -141.521 261.475C-142.071 261.792 -142.521 262.258 -142.871 262.875C-143.204 263.475 -143.371 264.192 -143.371 265.025C-143.371 265.858 -143.204 266.592 -142.871 267.225C-142.521 267.842 -142.071 268.317 -141.521 268.65C-140.954 268.983 -140.354 269.15 -139.721 269.15C-139.071 269.15 -138.462 268.992 -137.896 268.675C-137.329 268.342 -136.879 267.875 -136.546 267.275C-136.212 266.658 -136.046 265.925 -136.046 265.075ZM-110.27 264.775C-110.27 265.275 -110.303 265.725 -110.37 266.125H-120.495C-120.412 267.125 -120.062 267.908 -119.445 268.475C-118.828 269.042 -118.07 269.325 -117.17 269.325C-115.87 269.325 -114.945 268.767 -114.395 267.65H-110.62C-111.02 268.983 -111.787 270.083 -112.92 270.95C-114.053 271.8 -115.445 272.225 -117.095 272.225C-118.428 272.225 -119.628 271.933 -120.695 271.35C-121.745 270.75 -122.57 269.908 -123.17 268.825C-123.753 267.742 -124.045 266.492 -124.045 265.075C-124.045 263.642 -123.753 262.383 -123.17 261.3C-122.587 260.217 -121.77 259.383 -120.72 258.8C-119.67 258.217 -118.462 257.925 -117.095 257.925C-115.778 257.925 -114.603 258.208 -113.57 258.775C-112.52 259.342 -111.712 260.15 -111.145 261.2C-110.562 262.233 -110.27 263.425 -110.27 264.775ZM-113.895 263.775C-113.912 262.875 -114.237 262.158 -114.87 261.625C-115.503 261.075 -116.278 260.8 -117.195 260.8C-118.062 260.8 -118.795 261.067 -119.395 261.6C-119.978 262.117 -120.337 262.842 -120.47 263.775H-113.895ZM-108.615 265.05C-108.615 263.667 -108.332 262.442 -107.765 261.375C-107.182 260.292 -106.399 259.45 -105.415 258.85C-104.432 258.25 -103.349 257.95 -102.165 257.95C-101.182 257.95 -100.315 258.142 -99.5654 258.525C-98.7988 258.892 -98.1821 259.367 -97.7154 259.95V258.15H-94.1904V278.6H-97.7154V270.1C-98.1821 270.7 -98.8071 271.2 -99.5904 271.6C-100.374 272 -101.257 272.2 -102.24 272.2C-103.407 272.2 -104.482 271.9 -105.465 271.3C-106.432 270.683 -107.199 269.833 -107.765 268.75C-108.332 267.667 -108.615 266.433 -108.615 265.05ZM-97.7154 265.075C-97.7154 264.225 -97.8904 263.492 -98.2404 262.875C-98.5904 262.258 -99.0488 261.792 -99.6154 261.475C-100.165 261.158 -100.757 261 -101.39 261C-102.007 261 -102.599 261.158 -103.165 261.475C-103.715 261.792 -104.165 262.258 -104.515 262.875C-104.865 263.475 -105.04 264.2 -105.04 265.05C-105.04 265.9 -104.865 266.642 -104.515 267.275C-104.165 267.892 -103.715 268.358 -103.165 268.675C-102.599 268.992 -102.007 269.15 -101.39 269.15C-100.757 269.15 -100.165 268.992 -99.6154 268.675C-99.0488 268.358 -98.5904 267.892 -98.2404 267.275C-97.8904 266.658 -97.7154 265.925 -97.7154 265.075ZM-77.6971 258.15V272H-81.2221V270.25C-81.6721 270.85 -82.2637 271.325 -82.9971 271.675C-83.7137 272.008 -84.4971 272.175 -85.3471 272.175C-86.4304 272.175 -87.3887 271.95 -88.2221 271.5C-89.0554 271.033 -89.7137 270.358 -90.1971 269.475C-90.6637 268.575 -90.8971 267.508 -90.8971 266.275V258.15H-87.3971V265.775C-87.3971 266.875 -87.1221 267.725 -86.5721 268.325C-86.0221 268.908 -85.2721 269.2 -84.3221 269.2C-83.3554 269.2 -82.5971 268.908 -82.0471 268.325C-81.4971 267.725 -81.2221 266.875 -81.2221 265.775V258.15H-77.6971ZM-72.4687 256.5C-73.0854 256.5 -73.6021 256.308 -74.0187 255.925C-74.4187 255.525 -74.6187 255.033 -74.6187 254.45C-74.6187 253.867 -74.4187 253.383 -74.0187 253C-73.6021 252.6 -73.0854 252.4 -72.4687 252.4C-71.8521 252.4 -71.3437 252.6 -70.9437 253C-70.5271 253.383 -70.3187 253.867 -70.3187 254.45C-70.3187 255.033 -70.5271 255.525 -70.9437 255.925C-71.3437 256.308 -71.8521 256.5 -72.4687 256.5ZM-70.7437 258.15V272H-74.2437V258.15H-70.7437ZM-63.7857 260.15C-63.3357 259.517 -62.7191 258.992 -61.9357 258.575C-61.1357 258.142 -60.2274 257.925 -59.2107 257.925C-58.0274 257.925 -56.9607 258.217 -56.0107 258.8C-55.0441 259.383 -54.2857 260.217 -53.7357 261.3C-53.1691 262.367 -52.8857 263.608 -52.8857 265.025C-52.8857 266.442 -53.1691 267.7 -53.7357 268.8C-54.2857 269.883 -55.0441 270.725 -56.0107 271.325C-56.9607 271.925 -58.0274 272.225 -59.2107 272.225C-60.2274 272.225 -61.1274 272.017 -61.9107 271.6C-62.6774 271.183 -63.3024 270.658 -63.7857 270.025V278.6H-67.2857V258.15H-63.7857V260.15ZM-56.4607 265.025C-56.4607 264.192 -56.6357 263.475 -56.9857 262.875C-57.3191 262.258 -57.7691 261.792 -58.3357 261.475C-58.8857 261.158 -59.4857 261 -60.1357 261C-60.7691 261 -61.3691 261.167 -61.9357 261.5C-62.4857 261.817 -62.9357 262.283 -63.2857 262.9C-63.6191 263.517 -63.7857 264.242 -63.7857 265.075C-63.7857 265.908 -63.6191 266.633 -63.2857 267.25C-62.9357 267.867 -62.4857 268.342 -61.9357 268.675C-61.3691 268.992 -60.7691 269.15 -60.1357 269.15C-59.4857 269.15 -58.8857 268.983 -58.3357 268.65C-57.7691 268.317 -57.3191 267.842 -56.9857 267.225C-56.6357 266.608 -56.4607 265.875 -56.4607 265.025ZM-33.1424 257.95C-31.4424 257.95 -30.0757 258.475 -29.0424 259.525C-27.9924 260.558 -27.4674 262.008 -27.4674 263.875V272H-30.9674V264.35C-30.9674 263.267 -31.2424 262.442 -31.7924 261.875C-32.3424 261.292 -33.0924 261 -34.0424 261C-34.9924 261 -35.7507 261.292 -36.3174 261.875C-36.8674 262.442 -37.1424 263.267 -37.1424 264.35V272H-40.6424V264.35C-40.6424 263.267 -40.9174 262.442 -41.4674 261.875C-42.0174 261.292 -42.7674 261 -43.7174 261C-44.684 261 -45.4507 261.292 -46.0174 261.875C-46.5674 262.442 -46.8424 263.267 -46.8424 264.35V272H-50.3424V258.15H-46.8424V259.825C-46.3924 259.242 -45.8174 258.783 -45.1174 258.45C-44.4007 258.117 -43.6174 257.95 -42.7674 257.95C-41.684 257.95 -40.7174 258.183 -39.8674 258.65C-39.0174 259.1 -38.359 259.75 -37.8924 260.6C-37.4424 259.8 -36.7924 259.158 -35.9424 258.675C-35.0757 258.192 -34.1424 257.95 -33.1424 257.95ZM-11.2711 264.775C-11.2711 265.275 -11.3044 265.725 -11.3711 266.125H-21.4961C-21.4128 267.125 -21.0628 267.908 -20.4461 268.475C-19.8294 269.042 -19.0711 269.325 -18.1711 269.325C-16.8711 269.325 -15.9461 268.767 -15.3961 267.65H-11.6211C-12.0211 268.983 -12.7878 270.083 -13.9211 270.95C-15.0544 271.8 -16.4461 272.225 -18.0961 272.225C-19.4294 272.225 -20.6294 271.933 -21.6961 271.35C-22.7461 270.75 -23.5711 269.908 -24.1711 268.825C-24.7544 267.742 -25.0461 266.492 -25.0461 265.075C-25.0461 263.642 -24.7544 262.383 -24.1711 261.3C-23.5878 260.217 -22.7711 259.383 -21.7211 258.8C-20.6711 258.217 -19.4628 257.925 -18.0961 257.925C-16.7794 257.925 -15.6044 258.208 -14.5711 258.775C-13.5211 259.342 -12.7128 260.15 -12.1461 261.2C-11.5628 262.233 -11.2711 263.425 -11.2711 264.775ZM-14.8961 263.775C-14.9128 262.875 -15.2378 262.158 -15.8711 261.625C-16.5044 261.075 -17.2794 260.8 -18.1961 260.8C-19.0628 260.8 -19.7961 261.067 -20.3961 261.6C-20.9794 262.117 -21.3378 262.842 -21.4711 263.775H-14.8961ZM-1.04141 257.95C0.608594 257.95 1.94193 258.475 2.95859 259.525C3.97526 260.558 4.48359 262.008 4.48359 263.875V272H0.983594V264.35C0.983594 263.25 0.708594 262.408 0.158594 261.825C-0.391406 261.225 -1.14141 260.925 -2.09141 260.925C-3.05807 260.925 -3.82474 261.225 -4.39141 261.825C-4.94141 262.408 -5.21641 263.25 -5.21641 264.35V272H-8.71641V258.15H-5.21641V259.875C-4.74974 259.275 -4.15807 258.808 -3.44141 258.475C-2.70807 258.125 -1.90807 257.95 -1.04141 257.95ZM11.8869 261.025V267.725C11.8869 268.192 11.9952 268.533 12.2119 268.75C12.4452 268.95 12.8286 269.05 13.3619 269.05H14.9869V272H12.7869C9.83691 272 8.36191 270.567 8.36191 267.7V261.025H6.71191V258.15H8.36191V254.725H11.8869V258.15H14.9869V261.025H11.8869Z" fill="black"/>
</g>
<defs>
<clipPath id="clip0_34_302">
<rect width="1440" height="362" fill="white"/>
</clipPath>
<clipPath id="clip1_34_302">
<rect width="103" height="90" fill="white" transform="translate(632 115)"/>
</clipPath>
<clipPath id="clip2_34_302">
<rect width="112" height="90" fill="white" transform="translate(1018 115)"/>
</clipPath>
<clipPath id="clip3_34_302">
<rect width="90" height="90" fill="white" transform="translate(249 115)"/>
</clipPath>
<clipPath id="clip4_34_302">
<rect width="103" height="104" fill="white" transform="translate(1412 107)"/>
</clipPath>
</defs>
</svg>
