<svg width="72" height="70" viewBox="0 0 72 70" fill="none" xmlns="http://www.w3.org/2000/svg">
<rect width="72" height="70" rx="20" fill="#30A7FF"/>
<g clip-path="url(#clip0_45_6125)">
<path d="M33.2272 14.4514C34.5317 14.7454 35.7632 15.3067 36.9198 15.9666C38.0933 15.6234 39.4202 14.1669 40.648 15.0393C41.0017 15.2896 42.7741 17.0931 43.0323 17.4591C43.3655 17.9275 43.4796 18.3277 43.3187 18.8871C43.1577 19.4466 42.1976 20.9049 42.1976 21.2519C42.1976 21.6691 43.2232 23.0858 43.2719 23.6642C43.8334 24.2198 44.1721 23.7457 44.7205 23.5314C44.932 23.448 45.9538 23.1237 46.0062 23.0801C46.4255 22.7198 46.1466 21.0813 47.4773 20.9182C47.9059 20.867 49.6895 20.867 50.0264 20.994C50.9621 21.3486 50.775 22.6667 51.1755 23.0535C51.4226 23.2906 52.8524 23.5523 53.208 23.941C54.2 23.7078 54.6922 22.8487 55.7552 23.4404C56.137 23.6528 57.4771 24.986 57.5894 25.3747C57.9131 26.4746 56.9381 27.0777 56.9774 27.694C57.0036 28.1074 57.7915 29.2282 57.827 29.7782C58.1471 30.2087 59.3935 29.9868 59.8203 30.8876C60.043 31.356 60.0579 33.3757 59.8671 33.8555C59.5283 34.7145 58.484 34.6861 57.8102 35.09C57.7728 35.7045 56.8857 36.9371 57.0148 37.4207C57.2207 38.1831 58.0685 38.7691 57.4434 39.7438C57.3199 39.9372 55.7271 41.5018 55.5756 41.5492C54.5069 41.8849 53.8911 40.8892 53.2848 40.9291C52.8768 40.9556 51.7707 41.754 51.2279 41.79C50.7469 42.6283 50.7507 43.9747 49.4874 43.9633C50.382 47.5077 49.7101 51.2607 47.5615 54.1944C40.9717 63.1967 26.7703 58.7363 26.2818 47.612C26.2444 46.7548 26.512 45.782 26.4652 45.0632C26.4559 44.9286 25.9206 43.2806 25.8589 43.2048C25.7821 43.1118 23.9405 42.5145 23.598 42.3665C23.0908 42.1466 22.6136 41.8412 22.1176 41.5947C20.7682 42.0404 19.6602 43.5044 18.2304 42.3988C17.7718 42.0442 16.4917 40.7337 16.1267 40.2634C15.0188 38.843 16.4187 37.6862 16.8885 36.3284C16.2933 35.1204 15.685 33.9143 15.3762 32.5868C14.2496 31.8832 12.2938 32.1373 12.0654 30.4419C11.9737 29.7649 11.9812 27.9159 12.0561 27.2256C12.247 25.5094 14.1204 25.6288 15.3332 25.0466C15.7112 23.7381 16.2278 22.4979 16.8791 21.3069C16.5722 20.1615 15.3669 19.073 15.7955 17.8346C15.919 17.4781 17.9571 15.356 18.3333 15.0962C19.7033 14.1442 20.8468 15.521 22.1026 15.9704C23.2761 15.3731 24.4589 14.7643 25.7522 14.459C26.4989 13.2946 26.2332 11.2635 28.013 11.0606C28.713 10.981 30.2982 10.9905 31.0075 11.0606C32.778 11.2408 32.6545 13.1562 33.2272 14.4533V14.4514ZM31.0412 12.5872L28.0579 12.6195C27.7847 12.7845 27.504 15.045 26.7965 15.6082C26.3324 15.9761 25.0054 16.2587 24.3485 16.5413C23.5232 16.8959 22.6248 17.6753 21.6965 17.4591C21.2548 17.3567 19.5161 16.1904 19.2672 16.3156L17.216 18.4263C17.1598 18.652 18.4512 20.5711 18.4269 21.343C18.41 21.8796 17.594 23.154 17.3489 23.7647C17.0887 24.4151 16.866 25.6763 16.4149 26.1371C15.9358 26.6264 13.6581 27.0682 13.5702 27.3318L13.6001 30.3092C14.4217 30.7643 15.8816 30.8022 16.5085 31.5343C16.8791 31.9685 17.0045 32.8864 17.231 33.4572C17.4817 34.0868 18.4119 35.7367 18.4288 36.2336C18.455 37.0357 17.1542 38.8904 17.2197 39.1502L19.3271 41.2875C19.5891 41.3387 21.2492 40.1572 21.8481 40.0776C22.7034 39.9657 23.6242 40.7299 24.414 41.0637C25.3479 41.4582 26.643 41.5492 27.1727 42.4405C29.2745 37.6919 34.1911 34.5173 39.3847 35.2342C39.424 35.0274 39.2948 35.0142 39.1563 34.944C38.4171 34.5685 37.3652 34.7202 37.2305 33.5767C37.1743 33.1026 37.1687 31.6708 37.238 31.21C37.4233 29.9925 39.0347 30.1992 39.3622 29.8066C39.4071 29.7535 39.7234 28.7219 39.8076 28.5038C39.8918 28.2857 40.152 27.9159 40.1857 27.7433C40.2643 27.3546 39.4109 26.4329 39.4801 25.7161C39.555 24.9461 40.968 23.8652 41.5239 23.3361C41.537 23.1806 40.8127 22.0693 40.7359 21.7715C40.4383 20.6109 41.4995 19.4371 41.8832 18.4016L39.7908 16.2852C38.8906 16.5469 37.7545 17.5748 36.8113 17.5046C36.3602 17.4724 34.5373 16.4521 33.886 16.198C33.1299 15.9022 32.327 15.9458 31.8778 15.1038C31.6869 14.7472 31.1516 12.6574 31.0412 12.5853V12.5872ZM49.3863 22.4448L47.8179 22.4486C47.7543 22.4903 47.4717 23.613 47.3556 23.8292C46.9682 24.5555 46.1447 24.5688 45.4672 24.8551C45.0536 25.0296 44.466 25.4506 44.0654 25.5264C43.4853 25.6383 42.7198 25.1016 42.2219 24.8191C42.1134 24.8077 41.1027 25.8052 41.084 25.9095C41.0429 26.1238 41.8008 27.1441 41.7859 27.6827L40.6536 30.5936C40.3803 31.4015 39.2536 31.2896 38.7858 31.6215C38.6491 31.7182 38.7633 32.9623 38.739 33.2353C39.3921 33.406 40.3279 33.6051 40.6723 34.2632C40.8089 34.5249 40.9568 35.4067 41.1308 35.5281C41.3498 35.6798 42.4484 35.9662 42.8414 36.1406C45.2202 37.1931 47.0899 38.9777 48.3813 41.242C48.4917 41.4354 48.8866 42.3931 48.9409 42.4272C49.0026 42.4652 49.3432 42.4671 49.3844 42.4329C49.4406 42.3855 49.6951 41.2609 49.8149 41.0201C50.2304 40.1857 52.0776 40.0397 52.8318 39.4309C53.6216 38.9416 54.3366 39.8917 54.9168 40.0359C55.2012 40.106 55.8656 39.1976 56.1071 38.9834C55.8881 38.4049 55.3322 37.7298 55.379 37.0869L56.5506 34.1892C56.9118 33.4629 57.8476 33.5141 58.4802 33.1879L58.4615 31.6461C57.8776 31.4053 57.2019 31.3257 56.6947 30.9236L55.4502 28.0126C55.19 27.2067 55.9143 26.5733 56.0902 25.8469C55.8656 25.7009 55.2181 24.8551 55.044 24.821C54.8251 24.7793 53.7901 25.5682 53.2904 25.5568C52.9011 25.5473 51.838 24.931 51.387 24.7337C50.9359 24.5365 50.425 24.5403 50.0619 24.18C49.6764 23.7988 49.5472 22.9644 49.3882 22.4448H49.3863ZM30.8073 54.4505C36.0682 59.7813 45.1341 57.8128 47.7131 50.7392C50.906 41.9835 42.1096 33.7132 33.7344 37.6179C27.3037 40.6162 25.7877 49.3643 30.8054 54.4486L30.8073 54.4505Z" fill="white"/>
<path d="M24.444 33.9692C20.9329 30.4419 21.9679 24.2881 26.4503 22.1774C32.8829 19.1469 39.3304 26.2982 35.7145 32.5128C33.347 36.5806 27.7641 37.305 24.444 33.9692ZM28.8833 23.0326C21.6797 23.7741 22.5181 35.1052 29.9782 34.5723C37.427 34.0394 36.6372 22.2342 28.8833 23.0326Z" fill="white"/>
<path d="M47.689 27.5802C52.8377 26.8747 55.5009 33.1082 51.55 36.3283C48.7502 38.6097 44.367 36.8574 43.7924 33.2827C43.3881 30.77 45.0838 27.9386 47.6909 27.5802H47.689ZM47.8743 29.0954C44.4886 29.6302 44.3389 35.1507 47.893 35.7632C53.1465 36.6659 53.2644 28.2439 47.8743 29.0954Z" fill="white"/>
<path d="M37.8689 37.9157C45.0332 37.7413 49.6092 45.8712 45.692 52.0117C41.9713 57.8432 33.4744 57.5284 30.1636 51.4523C26.9108 45.4824 31.2023 38.0788 37.8689 37.9157ZM37.3242 39.503C33.7814 39.8064 31.0114 42.7592 30.5847 46.2808C31.3259 46.2846 32.271 46.3491 31.9472 47.3769C31.7208 48.0956 30.5772 47.7486 30.5847 47.8946C31.0302 51.4485 33.7664 54.2229 37.2756 54.6743C37.3822 54.68 37.0603 52.8727 38.3798 53.2709C38.96 53.4454 38.7691 54.1205 38.8196 54.534C38.8365 54.6743 38.7672 54.6933 38.9525 54.6686C41.7299 54.3102 44.2228 52.3436 45.1586 49.6716C45.3195 49.2126 45.5554 48.4636 45.5591 47.9894C45.561 47.7221 45.0893 47.8776 44.8591 47.8396C44.2584 47.741 43.9196 47.1455 44.2939 46.6146C44.5822 46.2068 45.1286 46.3453 45.5554 46.3282C45.2746 42.7914 42.3082 39.7856 38.8177 39.5011C39.1359 41.4487 37.0323 41.3899 37.3205 39.5011L37.3242 39.503Z" fill="white"/>
<path d="M38.8215 46.3301H42.4242C42.8884 46.3301 43.3188 47.5817 42.383 47.8055C41.7898 47.9477 38.799 47.9306 38.1177 47.8491C37.6667 47.796 37.3747 47.4869 37.3223 47.0431C37.2419 46.3547 37.225 43.3186 37.3654 42.7212C37.5881 41.7749 38.8215 42.2111 38.8215 42.6795V46.3301Z" fill="white"/>
</g>
<defs>
<clipPath id="clip0_45_6125">
<rect width="48" height="48" fill="white" transform="translate(12 11)"/>
</clipPath>
</defs>
</svg>
