<svg width="72" height="70" viewBox="0 0 72 70" fill="none" xmlns="http://www.w3.org/2000/svg">
<rect width="72" height="70" rx="20" fill="#30A7FF"/>
<g clip-path="url(#clip0_45_6157)">
<path d="M44.1858 41.6917C44.4407 41.9907 45.9142 41.9769 46.177 42.6323C46.3184 42.9847 46.3085 45.3688 46.1611 45.7331C45.9222 46.3212 44.7174 46.3232 44.2137 46.6678C44.1718 47.2361 43.4988 48.0934 43.4132 48.539C43.3355 48.9508 44.4665 49.7785 44.0862 50.6993C44.0066 50.8913 42.1686 52.6972 41.9775 52.7586C41.2029 53.0061 40.4183 52.0477 39.9305 52.0477C39.6895 52.0477 38.4709 52.8121 38.0487 52.8121C37.529 53.4417 37.764 54.7189 36.7385 54.8753C36.2964 54.9427 34.2136 54.9328 33.879 54.7605C33.3295 54.4773 33.3494 53.1705 33.0109 52.8517C32.7759 52.6299 31.4696 52.4121 31.1271 52.0576C30.3525 52.2061 29.6198 53.1427 28.8332 52.6497C28.6201 52.515 26.9395 50.8042 26.8818 50.63C26.603 49.7666 27.5708 49.0934 27.5329 48.5033C27.5269 48.4043 26.8499 46.741 26.7862 46.6658C26.5433 46.3747 25.1952 46.3153 24.9025 45.8658C24.6834 45.5312 24.6675 43.0164 24.8228 42.6303C25.0877 41.9749 26.5592 41.9887 26.8141 41.6897C26.8778 41.6145 27.0013 41.0185 27.0889 40.8244C27.2004 40.573 27.5508 40.0324 27.5867 39.8403C27.6803 39.3473 26.4437 38.4245 26.9913 37.5592C27.1088 37.3731 28.8631 35.6365 28.9985 35.595C29.8468 35.3415 30.6253 36.3197 31.161 36.2682C31.5393 36.2306 32.4931 35.5395 33.0069 35.5237C33.3235 34.9851 33.3474 33.6802 34.0762 33.5178C34.4286 33.4386 36.7883 33.4525 37.067 33.5713C37.7142 33.8465 37.6306 35.1078 37.9412 35.4742C38.1364 35.7058 39.4546 35.892 39.7572 36.2504C40.3287 36.3949 41.2845 35.1871 42.1268 35.6682C42.2881 35.7613 44.0723 37.6068 44.1181 37.7473C44.367 38.5176 43.4032 39.2978 43.4032 39.7829C43.4032 39.9136 43.8174 40.6106 43.913 40.8244C44.0006 41.0205 44.1241 41.6165 44.1878 41.6897L44.1858 41.6917ZM36.1869 35.092C36.1351 35.0465 34.8647 35.0465 34.8129 35.092C34.7094 35.1811 34.568 36.4325 34.1578 36.7672C33.8711 37.0008 32.6743 37.3177 32.2144 37.5077C31.9077 37.6345 31.6488 37.9097 31.2924 37.9869C30.6293 38.1295 29.8468 37.1731 29.3708 37.4503C29.2972 37.4939 28.654 38.1632 28.644 38.2146C28.6002 38.4424 29.3549 39.3988 29.3231 39.8779C29.3071 40.1116 28.7277 41.0858 28.5803 41.4205C28.3513 41.9452 28.2956 42.7927 27.7579 43.0778C27.5449 43.1927 26.3521 43.4778 26.3322 43.557C26.3959 43.8501 26.2406 44.5748 26.384 44.7886C26.5094 44.9748 27.742 45.1312 28.0347 45.45C28.2976 45.7371 28.4071 46.549 28.5803 46.9608C28.7775 47.4301 29.4047 48.2974 29.2812 48.7449C29.1578 49.1924 28.4788 49.8716 28.7197 50.2815C28.7635 50.3547 29.4366 50.9943 29.4883 51.0042C29.7392 51.0517 30.6472 50.2914 31.155 50.329C31.4557 50.3508 32.6485 51.022 33.0825 51.1923C33.3872 51.3131 33.8153 51.3388 34.0762 51.4913C34.6775 51.8418 34.5561 53.2061 35.0499 53.2952C35.2271 53.3269 35.9659 53.3249 36.0973 53.2477C36.3303 53.1091 36.4239 51.8873 36.7962 51.5666C36.9834 51.4042 38.1742 51.0913 38.5525 50.9369C39.0025 50.7527 39.5262 50.2894 40.0022 50.3448C40.4502 50.3963 41.3184 51.1329 41.623 50.929C41.7126 50.8696 42.3379 50.2221 42.3538 50.1567C42.4375 49.832 41.643 48.9231 41.6708 48.5013C41.6887 48.2241 42.2642 47.3153 42.4156 46.9569C42.5888 46.547 42.7262 45.6064 43.0388 45.3708C43.3813 45.1134 44.588 45.0064 44.6597 44.6322C44.6836 44.5015 44.6856 43.5451 44.6478 43.5016C44.6 43.4461 43.4789 43.2006 43.2379 43.0719C42.6645 42.7669 42.6605 41.9808 42.4156 41.4145C42.2543 41.0363 41.7863 40.3235 41.7126 40.0265C41.5454 39.3374 42.5151 38.4542 42.2762 38.0939C42.2184 38.0067 41.5653 37.383 41.4996 37.3672C41.1889 37.288 40.3028 38.0424 39.8429 38.0186C39.4725 37.9988 39.1001 37.6384 38.7795 37.5038C38.206 37.2642 36.8739 36.9711 36.613 36.49C36.4836 36.2504 36.2367 35.1356 36.1809 35.088L36.1869 35.092Z" fill="white"/>
<path d="M38.7855 19.9342V29.3893C38.7855 29.9021 38.2977 30.1794 37.8397 30.2308C36.8162 30.3457 34.1817 30.3477 33.1602 30.2308C32.9531 30.2071 32.3139 29.9952 32.3139 29.7853V20.0828C32.3139 20.0729 32.1746 19.9342 32.1646 19.9342H28.4808C28.1224 19.9342 27.7361 18.9957 28.1323 18.6967C30.3526 16.4473 32.3458 13.8593 34.5541 11.6178C35.3128 10.8455 35.6055 10.7683 36.4 11.5663C38.6302 13.8097 40.6294 16.4413 42.8696 18.6967C43.2658 18.9957 42.8795 19.9342 42.5211 19.9342H38.7875H38.7855ZM40.3785 18.3502L35.5398 13.0078L30.6214 18.3502H33.0607C33.3892 18.3502 33.9069 18.863 33.9069 19.1917V28.6467H37.093V19.3897C37.093 18.9679 37.4713 18.3502 37.9392 18.3502H40.3785Z" fill="white"/>
<path d="M20.7648 37.8544V47.6064C20.7648 47.8143 20.2291 48.1133 20.0121 48.145C19.0105 48.2856 16.2844 48.2519 15.2351 48.1569C14.9184 48.1292 14.2932 47.844 14.2932 47.5094V37.8563H10.46C10.2709 37.8563 9.8049 37.0366 10.0897 36.795C12.1526 34.5159 14.1399 32.1002 16.2825 29.8844C16.7922 29.3557 17.3398 28.5419 18.1283 29.1419L24.8926 36.5732C25.2769 36.8465 24.9125 37.8563 24.5979 37.8563H20.7648V37.8544ZM22.3578 36.2703L17.529 30.9259L12.7002 36.2703H15.1395C15.2809 36.2703 15.8862 36.7217 15.8862 36.8148V46.5669H19.1718V36.9138C19.1718 36.7336 19.7273 36.2703 19.9185 36.2703H22.3578Z" fill="white"/>
<path d="M56.7069 37.8543V47.5073C56.7069 47.844 56.0816 48.1271 55.765 48.1548C54.7156 48.2499 51.9896 48.2835 50.988 48.143C50.771 48.1133 50.2353 47.8123 50.2353 47.6044V37.8523H46.4022C46.209 37.8523 45.763 37.0959 45.976 36.8325C48.1684 34.201 50.6276 31.7456 52.8717 29.1378C53.6603 28.5359 54.2079 29.3517 54.7176 29.8804C56.8582 32.0981 58.8415 34.5158 60.9104 36.791C61.1952 37.0325 60.7292 37.8523 60.5401 37.8523H56.7069V37.8543ZM58.2999 36.2702L53.4711 30.9259L48.6423 36.2702H51.0816C51.2728 36.2702 51.8283 36.7335 51.8283 36.9137V46.5668H55.1139V36.8147C55.1139 36.7217 55.7192 36.2702 55.8606 36.2702H58.2999Z" fill="white"/>
<path d="M14.9642 49.3528C15.5058 49.2578 15.8443 49.6756 15.8901 50.1746C16.0594 51.9923 15.7607 54.0694 15.8802 55.9149C15.7428 56.7842 14.3947 56.8832 14.2891 55.7268C14.1259 53.9388 14.4166 51.8992 14.2991 50.0835C14.3329 49.7884 14.6794 49.4003 14.9642 49.3508V49.3528Z" fill="white"/>
<path d="M55.7869 49.3548C56.3404 49.2637 56.667 49.7864 56.7108 50.2736C56.8761 52.0596 56.5834 54.1011 56.7009 55.9149C56.5635 56.7842 55.2154 56.8832 55.1098 55.7268C54.9426 53.909 55.2393 51.8339 55.1218 49.9864C55.1298 49.6756 55.5061 49.4003 55.7889 49.3528L55.7869 49.3548Z" fill="white"/>
<path d="M20.5339 55.5446C20.0082 56.0218 19.3192 55.6615 19.1778 55.0258C19.361 53.2497 18.909 50.9013 19.1778 49.1964C19.3152 48.3212 20.6494 48.2816 20.7668 49.2875C20.9739 51.0636 20.6036 53.218 20.7688 55.0357C20.7529 55.2021 20.6533 55.4357 20.5339 55.5446Z" fill="white"/>
<path d="M50.4662 55.5446C50.3468 55.4357 50.2472 55.2021 50.2313 55.0357C50.3965 53.218 50.0262 51.0636 50.2332 49.2875C50.3507 48.2816 51.6849 48.3212 51.8223 49.1964C52.0911 50.9032 51.6391 53.2497 51.8223 55.0258C51.6809 55.6615 50.9899 56.0218 50.4662 55.5446Z" fill="white"/>
<path d="M17.4553 50.7409C18.0865 50.6598 18.3274 51.2281 18.3772 51.7587C18.4887 52.9428 18.5186 55.9585 18.3653 57.1011C18.2119 58.2436 16.8917 58.1723 16.7763 57.3129C16.9814 55.4952 16.5154 53.121 16.7882 51.3726C16.842 51.0221 17.1048 50.7865 17.4573 50.7409H17.4553Z" fill="white"/>
<path d="M53.296 50.7389C53.7938 50.6498 54.1642 50.9844 54.2199 51.4636C54.433 53.2972 54.0586 55.5268 54.2159 57.4039C53.6285 58.4217 52.7205 58.0495 52.6209 56.9149C52.5154 55.7268 52.4736 52.7071 52.6349 51.5725C52.6847 51.226 52.9216 50.8042 53.296 50.7369V50.7389Z" fill="white"/>
<path d="M34.5802 38.7691C40.3588 38.0385 43.3058 44.9629 38.8872 48.4974C36.0158 50.7944 31.6092 49.4934 30.3467 46.0956C29.1958 42.9987 31.1691 39.1988 34.5802 38.7691ZM34.7793 40.3532C30.1078 40.9849 30.753 48.6559 36.0377 48.04C40.9382 47.4678 40.3608 39.5988 34.7793 40.3532Z" fill="white"/>
</g>
<defs>
<clipPath id="clip0_45_6157">
<rect width="51" height="47" fill="white" transform="translate(10 11)"/>
</clipPath>
</defs>
</svg>
